<mxfile host="app.diagrams.net" modified="2023-05-08T22:12:18.187Z" agent="Mozilla/5.0 (Windows NT 10.0; Win64; x64) AppleWebKit/537.36 (KHTML, like Gecko) Chrome/113.0.0.0 Safari/537.36" etag="6Uf0_AdLvBQVytzWKC8b" version="21.2.9" type="github">
  <diagram id="87qUSe2Ay2fvS16h31EZ" name="Sayfa -1">
    <mxGraphModel dx="2117" dy="581" grid="1" gridSize="10" guides="1" tooltips="1" connect="1" arrows="1" fold="1" page="1" pageScale="1" pageWidth="827" pageHeight="1169" math="0" shadow="0">
      <root>
        <mxCell id="0" />
        <mxCell id="1" parent="0" />
        <mxCell id="ydyuHpFRoIkNP3I8t9Dv-1" value="Client" style="shape=table;startSize=20;container=1;collapsible=0;childLayout=tableLayout;fixedRows=1;rowLines=0;fontStyle=0;strokeColor=default;fontSize=16;" parent="1" vertex="1">
          <mxGeometry x="470" y="500" width="250" height="170" as="geometry" />
        </mxCell>
        <mxCell id="ydyuHpFRoIkNP3I8t9Dv-14" value="" style="shape=tableRow;horizontal=0;startSize=0;swimlaneHead=0;swimlaneBody=0;top=0;left=0;bottom=0;right=0;collapsible=0;dropTarget=0;fillColor=none;points=[[0,0.5],[1,0.5]];portConstraint=eastwest;strokeColor=inherit;fontSize=16;" parent="ydyuHpFRoIkNP3I8t9Dv-1" vertex="1">
          <mxGeometry y="20" width="250" height="30" as="geometry" />
        </mxCell>
        <mxCell id="ydyuHpFRoIkNP3I8t9Dv-15" value="char(2)" style="shape=partialRectangle;html=1;whiteSpace=wrap;connectable=0;fillColor=none;top=0;left=0;bottom=0;right=0;overflow=hidden;pointerEvents=1;strokeColor=inherit;fontSize=16;" parent="ydyuHpFRoIkNP3I8t9Dv-14" vertex="1">
          <mxGeometry width="110" height="30" as="geometry">
            <mxRectangle width="110" height="30" as="alternateBounds" />
          </mxGeometry>
        </mxCell>
        <mxCell id="ydyuHpFRoIkNP3I8t9Dv-16" value="ClientID" style="shape=partialRectangle;html=1;whiteSpace=wrap;connectable=0;fillColor=#f8cecc;top=0;left=0;bottom=0;right=0;align=left;spacingLeft=6;overflow=hidden;strokeColor=#b85450;fontSize=16;" parent="ydyuHpFRoIkNP3I8t9Dv-14" vertex="1">
          <mxGeometry x="110" width="140" height="30" as="geometry">
            <mxRectangle width="140" height="30" as="alternateBounds" />
          </mxGeometry>
        </mxCell>
        <mxCell id="ydyuHpFRoIkNP3I8t9Dv-2" value="" style="shape=tableRow;horizontal=0;startSize=0;swimlaneHead=0;swimlaneBody=0;top=0;left=0;bottom=0;right=0;collapsible=0;dropTarget=0;fillColor=none;points=[[0,0.5],[1,0.5]];portConstraint=eastwest;strokeColor=inherit;fontSize=16;" parent="ydyuHpFRoIkNP3I8t9Dv-1" vertex="1">
          <mxGeometry y="50" width="250" height="30" as="geometry" />
        </mxCell>
        <mxCell id="ydyuHpFRoIkNP3I8t9Dv-3" value="varchar(25)" style="shape=partialRectangle;html=1;whiteSpace=wrap;connectable=0;fillColor=none;top=0;left=0;bottom=0;right=0;overflow=hidden;pointerEvents=1;strokeColor=inherit;fontSize=16;" parent="ydyuHpFRoIkNP3I8t9Dv-2" vertex="1">
          <mxGeometry width="110" height="30" as="geometry">
            <mxRectangle width="110" height="30" as="alternateBounds" />
          </mxGeometry>
        </mxCell>
        <mxCell id="ydyuHpFRoIkNP3I8t9Dv-4" value="First_Name" style="shape=partialRectangle;html=1;whiteSpace=wrap;connectable=0;fillColor=none;top=0;left=0;bottom=0;right=0;align=left;spacingLeft=6;overflow=hidden;strokeColor=inherit;fontSize=16;" parent="ydyuHpFRoIkNP3I8t9Dv-2" vertex="1">
          <mxGeometry x="110" width="140" height="30" as="geometry">
            <mxRectangle width="140" height="30" as="alternateBounds" />
          </mxGeometry>
        </mxCell>
        <mxCell id="ydyuHpFRoIkNP3I8t9Dv-5" value="" style="shape=tableRow;horizontal=0;startSize=0;swimlaneHead=0;swimlaneBody=0;top=0;left=0;bottom=0;right=0;collapsible=0;dropTarget=0;fillColor=none;points=[[0,0.5],[1,0.5]];portConstraint=eastwest;strokeColor=inherit;fontSize=16;" parent="ydyuHpFRoIkNP3I8t9Dv-1" vertex="1">
          <mxGeometry y="80" width="250" height="30" as="geometry" />
        </mxCell>
        <mxCell id="ydyuHpFRoIkNP3I8t9Dv-6" value="varchar(25)" style="shape=partialRectangle;html=1;whiteSpace=wrap;connectable=0;fillColor=none;top=0;left=0;bottom=0;right=0;overflow=hidden;strokeColor=inherit;fontSize=16;" parent="ydyuHpFRoIkNP3I8t9Dv-5" vertex="1">
          <mxGeometry width="110" height="30" as="geometry">
            <mxRectangle width="110" height="30" as="alternateBounds" />
          </mxGeometry>
        </mxCell>
        <mxCell id="ydyuHpFRoIkNP3I8t9Dv-7" value="Last_name" style="shape=partialRectangle;html=1;whiteSpace=wrap;connectable=0;fillColor=none;top=0;left=0;bottom=0;right=0;align=left;spacingLeft=6;overflow=hidden;strokeColor=inherit;fontSize=16;" parent="ydyuHpFRoIkNP3I8t9Dv-5" vertex="1">
          <mxGeometry x="110" width="140" height="30" as="geometry">
            <mxRectangle width="140" height="30" as="alternateBounds" />
          </mxGeometry>
        </mxCell>
        <mxCell id="ydyuHpFRoIkNP3I8t9Dv-11" value="" style="shape=tableRow;horizontal=0;startSize=0;swimlaneHead=0;swimlaneBody=0;top=0;left=0;bottom=0;right=0;collapsible=0;dropTarget=0;fillColor=none;points=[[0,0.5],[1,0.5]];portConstraint=eastwest;strokeColor=inherit;fontSize=16;" parent="ydyuHpFRoIkNP3I8t9Dv-1" vertex="1">
          <mxGeometry y="110" width="250" height="30" as="geometry" />
        </mxCell>
        <mxCell id="ydyuHpFRoIkNP3I8t9Dv-12" value="varchar(16)" style="shape=partialRectangle;html=1;whiteSpace=wrap;connectable=0;fillColor=none;top=0;left=0;bottom=0;right=0;overflow=hidden;strokeColor=inherit;fontSize=16;" parent="ydyuHpFRoIkNP3I8t9Dv-11" vertex="1">
          <mxGeometry width="110" height="30" as="geometry">
            <mxRectangle width="110" height="30" as="alternateBounds" />
          </mxGeometry>
        </mxCell>
        <mxCell id="ydyuHpFRoIkNP3I8t9Dv-13" value="Tel_No" style="shape=partialRectangle;html=1;whiteSpace=wrap;connectable=0;fillColor=none;top=0;left=0;bottom=0;right=0;align=left;spacingLeft=6;overflow=hidden;strokeColor=inherit;fontSize=16;" parent="ydyuHpFRoIkNP3I8t9Dv-11" vertex="1">
          <mxGeometry x="110" width="140" height="30" as="geometry">
            <mxRectangle width="140" height="30" as="alternateBounds" />
          </mxGeometry>
        </mxCell>
        <mxCell id="ydyuHpFRoIkNP3I8t9Dv-8" value="" style="shape=tableRow;horizontal=0;startSize=0;swimlaneHead=0;swimlaneBody=0;top=0;left=0;bottom=0;right=0;collapsible=0;dropTarget=0;fillColor=none;points=[[0,0.5],[1,0.5]];portConstraint=eastwest;strokeColor=inherit;fontSize=16;" parent="ydyuHpFRoIkNP3I8t9Dv-1" vertex="1">
          <mxGeometry y="140" width="250" height="30" as="geometry" />
        </mxCell>
        <mxCell id="ydyuHpFRoIkNP3I8t9Dv-9" value="varchar(16)" style="shape=partialRectangle;html=1;whiteSpace=wrap;connectable=0;fillColor=none;top=0;left=0;bottom=0;right=0;overflow=hidden;strokeColor=inherit;fontSize=16;" parent="ydyuHpFRoIkNP3I8t9Dv-8" vertex="1">
          <mxGeometry width="110" height="30" as="geometry">
            <mxRectangle width="110" height="30" as="alternateBounds" />
          </mxGeometry>
        </mxCell>
        <mxCell id="ydyuHpFRoIkNP3I8t9Dv-10" value="Card_number" style="shape=partialRectangle;html=1;whiteSpace=wrap;connectable=0;fillColor=none;top=0;left=0;bottom=0;right=0;align=left;spacingLeft=6;overflow=hidden;strokeColor=inherit;fontSize=16;" parent="ydyuHpFRoIkNP3I8t9Dv-8" vertex="1">
          <mxGeometry x="110" width="140" height="30" as="geometry">
            <mxRectangle width="140" height="30" as="alternateBounds" />
          </mxGeometry>
        </mxCell>
        <mxCell id="ydyuHpFRoIkNP3I8t9Dv-17" value="Ticket" style="shape=table;startSize=30;container=1;collapsible=0;childLayout=tableLayout;fixedRows=1;rowLines=0;fontStyle=0;strokeColor=default;fontSize=16;" parent="1" vertex="1">
          <mxGeometry x="284" y="750" width="260" height="330" as="geometry" />
        </mxCell>
        <mxCell id="ydyuHpFRoIkNP3I8t9Dv-18" value="" style="shape=tableRow;horizontal=0;startSize=0;swimlaneHead=0;swimlaneBody=0;top=0;left=0;bottom=0;right=0;collapsible=0;dropTarget=0;fillColor=none;points=[[0,0.5],[1,0.5]];portConstraint=eastwest;strokeColor=inherit;fontSize=16;" parent="ydyuHpFRoIkNP3I8t9Dv-17" vertex="1">
          <mxGeometry y="30" width="260" height="30" as="geometry" />
        </mxCell>
        <mxCell id="ydyuHpFRoIkNP3I8t9Dv-19" value="int" style="shape=partialRectangle;html=1;whiteSpace=wrap;connectable=0;fillColor=none;top=0;left=0;bottom=0;right=0;overflow=hidden;pointerEvents=1;strokeColor=inherit;fontSize=16;" parent="ydyuHpFRoIkNP3I8t9Dv-18" vertex="1">
          <mxGeometry width="120" height="30" as="geometry">
            <mxRectangle width="120" height="30" as="alternateBounds" />
          </mxGeometry>
        </mxCell>
        <mxCell id="ydyuHpFRoIkNP3I8t9Dv-20" value="Ticket_No" style="shape=partialRectangle;html=1;whiteSpace=wrap;connectable=0;fillColor=#f8cecc;top=0;left=0;bottom=0;right=0;align=left;spacingLeft=6;overflow=hidden;strokeColor=#b85450;fontSize=16;" parent="ydyuHpFRoIkNP3I8t9Dv-18" vertex="1">
          <mxGeometry x="120" width="140" height="30" as="geometry">
            <mxRectangle width="140" height="30" as="alternateBounds" />
          </mxGeometry>
        </mxCell>
        <mxCell id="ydyuHpFRoIkNP3I8t9Dv-21" value="" style="shape=tableRow;horizontal=0;startSize=0;swimlaneHead=0;swimlaneBody=0;top=0;left=0;bottom=0;right=0;collapsible=0;dropTarget=0;fillColor=none;points=[[0,0.5],[1,0.5]];portConstraint=eastwest;strokeColor=inherit;fontSize=16;" parent="ydyuHpFRoIkNP3I8t9Dv-17" vertex="1">
          <mxGeometry y="60" width="260" height="30" as="geometry" />
        </mxCell>
        <mxCell id="ydyuHpFRoIkNP3I8t9Dv-22" value="varchar(25)" style="shape=partialRectangle;html=1;whiteSpace=wrap;connectable=0;fillColor=none;top=0;left=0;bottom=0;right=0;overflow=hidden;strokeColor=inherit;fontSize=16;" parent="ydyuHpFRoIkNP3I8t9Dv-21" vertex="1">
          <mxGeometry width="120" height="30" as="geometry">
            <mxRectangle width="120" height="30" as="alternateBounds" />
          </mxGeometry>
        </mxCell>
        <mxCell id="ydyuHpFRoIkNP3I8t9Dv-23" value="First_Name" style="shape=partialRectangle;html=1;whiteSpace=wrap;connectable=0;fillColor=none;top=0;left=0;bottom=0;right=0;align=left;spacingLeft=6;overflow=hidden;strokeColor=inherit;fontSize=16;" parent="ydyuHpFRoIkNP3I8t9Dv-21" vertex="1">
          <mxGeometry x="120" width="140" height="30" as="geometry">
            <mxRectangle width="140" height="30" as="alternateBounds" />
          </mxGeometry>
        </mxCell>
        <mxCell id="ydyuHpFRoIkNP3I8t9Dv-24" value="" style="shape=tableRow;horizontal=0;startSize=0;swimlaneHead=0;swimlaneBody=0;top=0;left=0;bottom=0;right=0;collapsible=0;dropTarget=0;fillColor=none;points=[[0,0.5],[1,0.5]];portConstraint=eastwest;strokeColor=inherit;fontSize=16;" parent="ydyuHpFRoIkNP3I8t9Dv-17" vertex="1">
          <mxGeometry y="90" width="260" height="30" as="geometry" />
        </mxCell>
        <mxCell id="ydyuHpFRoIkNP3I8t9Dv-25" value="varchar(25)" style="shape=partialRectangle;html=1;whiteSpace=wrap;connectable=0;fillColor=none;top=0;left=0;bottom=0;right=0;overflow=hidden;strokeColor=inherit;fontSize=16;" parent="ydyuHpFRoIkNP3I8t9Dv-24" vertex="1">
          <mxGeometry width="120" height="30" as="geometry">
            <mxRectangle width="120" height="30" as="alternateBounds" />
          </mxGeometry>
        </mxCell>
        <mxCell id="ydyuHpFRoIkNP3I8t9Dv-26" value="Last_Name" style="shape=partialRectangle;html=1;whiteSpace=wrap;connectable=0;fillColor=none;top=0;left=0;bottom=0;right=0;align=left;spacingLeft=6;overflow=hidden;strokeColor=inherit;fontSize=16;" parent="ydyuHpFRoIkNP3I8t9Dv-24" vertex="1">
          <mxGeometry x="120" width="140" height="30" as="geometry">
            <mxRectangle width="140" height="30" as="alternateBounds" />
          </mxGeometry>
        </mxCell>
        <mxCell id="ydyuHpFRoIkNP3I8t9Dv-27" value="" style="shape=tableRow;horizontal=0;startSize=0;swimlaneHead=0;swimlaneBody=0;top=0;left=0;bottom=0;right=0;collapsible=0;dropTarget=0;fillColor=none;points=[[0,0.5],[1,0.5]];portConstraint=eastwest;strokeColor=inherit;fontSize=16;" parent="ydyuHpFRoIkNP3I8t9Dv-17" vertex="1">
          <mxGeometry y="120" width="260" height="30" as="geometry" />
        </mxCell>
        <mxCell id="ydyuHpFRoIkNP3I8t9Dv-28" value="char(9)" style="shape=partialRectangle;html=1;whiteSpace=wrap;connectable=0;fillColor=none;top=0;left=0;bottom=0;right=0;overflow=hidden;strokeColor=inherit;fontSize=16;" parent="ydyuHpFRoIkNP3I8t9Dv-27" vertex="1">
          <mxGeometry width="120" height="30" as="geometry">
            <mxRectangle width="120" height="30" as="alternateBounds" />
          </mxGeometry>
        </mxCell>
        <mxCell id="ydyuHpFRoIkNP3I8t9Dv-29" value="Passport_No" style="shape=partialRectangle;html=1;whiteSpace=wrap;connectable=0;fillColor=#d5e8d4;top=0;left=0;bottom=0;right=0;align=left;spacingLeft=6;overflow=hidden;strokeColor=#82b366;fontSize=16;" parent="ydyuHpFRoIkNP3I8t9Dv-27" vertex="1">
          <mxGeometry x="120" width="140" height="30" as="geometry">
            <mxRectangle width="140" height="30" as="alternateBounds" />
          </mxGeometry>
        </mxCell>
        <mxCell id="ydyuHpFRoIkNP3I8t9Dv-33" value="" style="shape=tableRow;horizontal=0;startSize=0;swimlaneHead=0;swimlaneBody=0;top=0;left=0;bottom=0;right=0;collapsible=0;dropTarget=0;fillColor=none;points=[[0,0.5],[1,0.5]];portConstraint=eastwest;strokeColor=inherit;fontSize=16;" parent="ydyuHpFRoIkNP3I8t9Dv-17" vertex="1">
          <mxGeometry y="150" width="260" height="30" as="geometry" />
        </mxCell>
        <mxCell id="ydyuHpFRoIkNP3I8t9Dv-34" value="char(3)" style="shape=partialRectangle;html=1;whiteSpace=wrap;connectable=0;fillColor=none;top=0;left=0;bottom=0;right=0;overflow=hidden;strokeColor=inherit;fontSize=16;" parent="ydyuHpFRoIkNP3I8t9Dv-33" vertex="1">
          <mxGeometry width="120" height="30" as="geometry">
            <mxRectangle width="120" height="30" as="alternateBounds" />
          </mxGeometry>
        </mxCell>
        <mxCell id="ydyuHpFRoIkNP3I8t9Dv-35" value="Carrier" style="shape=partialRectangle;html=1;whiteSpace=wrap;connectable=0;fillColor=none;top=0;left=0;bottom=0;right=0;align=left;spacingLeft=6;overflow=hidden;strokeColor=inherit;fontSize=16;" parent="ydyuHpFRoIkNP3I8t9Dv-33" vertex="1">
          <mxGeometry x="120" width="140" height="30" as="geometry">
            <mxRectangle width="140" height="30" as="alternateBounds" />
          </mxGeometry>
        </mxCell>
        <mxCell id="ydyuHpFRoIkNP3I8t9Dv-39" value="" style="shape=tableRow;horizontal=0;startSize=0;swimlaneHead=0;swimlaneBody=0;top=0;left=0;bottom=0;right=0;collapsible=0;dropTarget=0;fillColor=none;points=[[0,0.5],[1,0.5]];portConstraint=eastwest;strokeColor=inherit;fontSize=16;" parent="ydyuHpFRoIkNP3I8t9Dv-17" vertex="1">
          <mxGeometry y="180" width="260" height="30" as="geometry" />
        </mxCell>
        <mxCell id="ydyuHpFRoIkNP3I8t9Dv-40" value="varchar(5)" style="shape=partialRectangle;html=1;whiteSpace=wrap;connectable=0;fillColor=none;top=0;left=0;bottom=0;right=0;overflow=hidden;strokeColor=inherit;fontSize=16;" parent="ydyuHpFRoIkNP3I8t9Dv-39" vertex="1">
          <mxGeometry width="120" height="30" as="geometry">
            <mxRectangle width="120" height="30" as="alternateBounds" />
          </mxGeometry>
        </mxCell>
        <mxCell id="ydyuHpFRoIkNP3I8t9Dv-41" value="Seat" style="shape=partialRectangle;html=1;whiteSpace=wrap;connectable=0;fillColor=#d5e8d4;top=0;left=0;bottom=0;right=0;align=left;spacingLeft=6;overflow=hidden;strokeColor=#82b366;fontSize=16;" parent="ydyuHpFRoIkNP3I8t9Dv-39" vertex="1">
          <mxGeometry x="120" width="140" height="30" as="geometry">
            <mxRectangle width="140" height="30" as="alternateBounds" />
          </mxGeometry>
        </mxCell>
        <mxCell id="ydyuHpFRoIkNP3I8t9Dv-36" value="" style="shape=tableRow;horizontal=0;startSize=0;swimlaneHead=0;swimlaneBody=0;top=0;left=0;bottom=0;right=0;collapsible=0;dropTarget=0;fillColor=none;points=[[0,0.5],[1,0.5]];portConstraint=eastwest;strokeColor=inherit;fontSize=16;" parent="ydyuHpFRoIkNP3I8t9Dv-17" vertex="1">
          <mxGeometry y="210" width="260" height="30" as="geometry" />
        </mxCell>
        <mxCell id="ydyuHpFRoIkNP3I8t9Dv-37" value="varchar(10)" style="shape=partialRectangle;html=1;whiteSpace=wrap;connectable=0;fillColor=none;top=0;left=0;bottom=0;right=0;overflow=hidden;strokeColor=inherit;fontSize=16;" parent="ydyuHpFRoIkNP3I8t9Dv-36" vertex="1">
          <mxGeometry width="120" height="30" as="geometry">
            <mxRectangle width="120" height="30" as="alternateBounds" />
          </mxGeometry>
        </mxCell>
        <mxCell id="ydyuHpFRoIkNP3I8t9Dv-38" value="Departure_Time" style="shape=partialRectangle;html=1;whiteSpace=wrap;connectable=0;fillColor=none;top=0;left=0;bottom=0;right=0;align=left;spacingLeft=6;overflow=hidden;strokeColor=inherit;fontSize=16;" parent="ydyuHpFRoIkNP3I8t9Dv-36" vertex="1">
          <mxGeometry x="120" width="140" height="30" as="geometry">
            <mxRectangle width="140" height="30" as="alternateBounds" />
          </mxGeometry>
        </mxCell>
        <mxCell id="ydyuHpFRoIkNP3I8t9Dv-30" value="" style="shape=tableRow;horizontal=0;startSize=0;swimlaneHead=0;swimlaneBody=0;top=0;left=0;bottom=0;right=0;collapsible=0;dropTarget=0;fillColor=none;points=[[0,0.5],[1,0.5]];portConstraint=eastwest;strokeColor=inherit;fontSize=16;" parent="ydyuHpFRoIkNP3I8t9Dv-17" vertex="1">
          <mxGeometry y="240" width="260" height="30" as="geometry" />
        </mxCell>
        <mxCell id="ydyuHpFRoIkNP3I8t9Dv-31" value="varchar(40)" style="shape=partialRectangle;html=1;whiteSpace=wrap;connectable=0;fillColor=none;top=0;left=0;bottom=0;right=0;overflow=hidden;strokeColor=inherit;fontSize=16;" parent="ydyuHpFRoIkNP3I8t9Dv-30" vertex="1">
          <mxGeometry width="120" height="30" as="geometry">
            <mxRectangle width="120" height="30" as="alternateBounds" />
          </mxGeometry>
        </mxCell>
        <mxCell id="ydyuHpFRoIkNP3I8t9Dv-32" value="PLocation" style="shape=partialRectangle;html=1;whiteSpace=wrap;connectable=0;fillColor=none;top=0;left=0;bottom=0;right=0;align=left;spacingLeft=6;overflow=hidden;strokeColor=inherit;fontSize=16;" parent="ydyuHpFRoIkNP3I8t9Dv-30" vertex="1">
          <mxGeometry x="120" width="140" height="30" as="geometry">
            <mxRectangle width="140" height="30" as="alternateBounds" />
          </mxGeometry>
        </mxCell>
        <mxCell id="ydyuHpFRoIkNP3I8t9Dv-42" value="" style="shape=tableRow;horizontal=0;startSize=0;swimlaneHead=0;swimlaneBody=0;top=0;left=0;bottom=0;right=0;collapsible=0;dropTarget=0;fillColor=none;points=[[0,0.5],[1,0.5]];portConstraint=eastwest;strokeColor=inherit;fontSize=16;" parent="ydyuHpFRoIkNP3I8t9Dv-17" vertex="1">
          <mxGeometry y="270" width="260" height="30" as="geometry" />
        </mxCell>
        <mxCell id="ydyuHpFRoIkNP3I8t9Dv-43" value="varchar(40)" style="shape=partialRectangle;html=1;whiteSpace=wrap;connectable=0;fillColor=none;top=0;left=0;bottom=0;right=0;overflow=hidden;strokeColor=inherit;fontSize=16;" parent="ydyuHpFRoIkNP3I8t9Dv-42" vertex="1">
          <mxGeometry width="120" height="30" as="geometry">
            <mxRectangle width="120" height="30" as="alternateBounds" />
          </mxGeometry>
        </mxCell>
        <mxCell id="ydyuHpFRoIkNP3I8t9Dv-44" value="Destination" style="shape=partialRectangle;html=1;whiteSpace=wrap;connectable=0;fillColor=none;top=0;left=0;bottom=0;right=0;align=left;spacingLeft=6;overflow=hidden;strokeColor=inherit;fontSize=16;" parent="ydyuHpFRoIkNP3I8t9Dv-42" vertex="1">
          <mxGeometry x="120" width="140" height="30" as="geometry">
            <mxRectangle width="140" height="30" as="alternateBounds" />
          </mxGeometry>
        </mxCell>
        <mxCell id="ydyuHpFRoIkNP3I8t9Dv-45" value="" style="shape=tableRow;horizontal=0;startSize=0;swimlaneHead=0;swimlaneBody=0;top=0;left=0;bottom=0;right=0;collapsible=0;dropTarget=0;fillColor=none;points=[[0,0.5],[1,0.5]];portConstraint=eastwest;strokeColor=inherit;fontSize=16;" parent="ydyuHpFRoIkNP3I8t9Dv-17" vertex="1">
          <mxGeometry y="300" width="260" height="30" as="geometry" />
        </mxCell>
        <mxCell id="ydyuHpFRoIkNP3I8t9Dv-46" value="varchar(8)" style="shape=partialRectangle;html=1;whiteSpace=wrap;connectable=0;fillColor=none;top=0;left=0;bottom=0;right=0;overflow=hidden;strokeColor=inherit;fontSize=16;" parent="ydyuHpFRoIkNP3I8t9Dv-45" vertex="1">
          <mxGeometry width="120" height="30" as="geometry">
            <mxRectangle width="120" height="30" as="alternateBounds" />
          </mxGeometry>
        </mxCell>
        <mxCell id="ydyuHpFRoIkNP3I8t9Dv-47" value="PNR" style="shape=partialRectangle;html=1;whiteSpace=wrap;connectable=0;top=0;left=0;bottom=0;right=0;align=left;spacingLeft=6;overflow=hidden;fontSize=16;fillColor=#d5e8d4;strokeColor=#82b366;" parent="ydyuHpFRoIkNP3I8t9Dv-45" vertex="1">
          <mxGeometry x="120" width="140" height="30" as="geometry">
            <mxRectangle width="140" height="30" as="alternateBounds" />
          </mxGeometry>
        </mxCell>
        <mxCell id="ydyuHpFRoIkNP3I8t9Dv-48" value="&#xa;Booking&#xa;" style="shape=table;startSize=30;container=1;collapsible=0;childLayout=tableLayout;fixedRows=1;rowLines=0;fontStyle=0;strokeColor=default;fontSize=16;" parent="1" vertex="1">
          <mxGeometry x="840" y="690" width="270" height="180" as="geometry" />
        </mxCell>
        <mxCell id="ydyuHpFRoIkNP3I8t9Dv-49" value="" style="shape=tableRow;horizontal=0;startSize=0;swimlaneHead=0;swimlaneBody=0;top=0;left=0;bottom=0;right=0;collapsible=0;dropTarget=0;fillColor=none;points=[[0,0.5],[1,0.5]];portConstraint=eastwest;strokeColor=inherit;fontSize=16;" parent="ydyuHpFRoIkNP3I8t9Dv-48" vertex="1">
          <mxGeometry y="30" width="270" height="30" as="geometry" />
        </mxCell>
        <mxCell id="ydyuHpFRoIkNP3I8t9Dv-50" value="varchar(8)" style="shape=partialRectangle;html=1;whiteSpace=wrap;connectable=0;fillColor=none;top=0;left=0;bottom=0;right=0;overflow=hidden;pointerEvents=1;strokeColor=inherit;fontSize=16;" parent="ydyuHpFRoIkNP3I8t9Dv-49" vertex="1">
          <mxGeometry width="150" height="30" as="geometry">
            <mxRectangle width="150" height="30" as="alternateBounds" />
          </mxGeometry>
        </mxCell>
        <mxCell id="ydyuHpFRoIkNP3I8t9Dv-51" value="PNR" style="shape=partialRectangle;html=1;whiteSpace=wrap;connectable=0;fillColor=#f8cecc;top=0;left=0;bottom=0;right=0;align=left;spacingLeft=6;overflow=hidden;strokeColor=#b85450;fontSize=16;" parent="ydyuHpFRoIkNP3I8t9Dv-49" vertex="1">
          <mxGeometry x="150" width="120" height="30" as="geometry">
            <mxRectangle width="120" height="30" as="alternateBounds" />
          </mxGeometry>
        </mxCell>
        <mxCell id="ydyuHpFRoIkNP3I8t9Dv-52" value="" style="shape=tableRow;horizontal=0;startSize=0;swimlaneHead=0;swimlaneBody=0;top=0;left=0;bottom=0;right=0;collapsible=0;dropTarget=0;fillColor=none;points=[[0,0.5],[1,0.5]];portConstraint=eastwest;strokeColor=inherit;fontSize=16;" parent="ydyuHpFRoIkNP3I8t9Dv-48" vertex="1">
          <mxGeometry y="60" width="270" height="30" as="geometry" />
        </mxCell>
        <mxCell id="ydyuHpFRoIkNP3I8t9Dv-53" value="varchar(8)" style="shape=partialRectangle;html=1;whiteSpace=wrap;connectable=0;fillColor=none;top=0;left=0;bottom=0;right=0;overflow=hidden;strokeColor=inherit;fontSize=16;" parent="ydyuHpFRoIkNP3I8t9Dv-52" vertex="1">
          <mxGeometry width="150" height="30" as="geometry">
            <mxRectangle width="150" height="30" as="alternateBounds" />
          </mxGeometry>
        </mxCell>
        <mxCell id="ydyuHpFRoIkNP3I8t9Dv-54" value="FlightID" style="shape=partialRectangle;html=1;whiteSpace=wrap;connectable=0;fillColor=#d5e8d4;top=0;left=0;bottom=0;right=0;align=left;spacingLeft=6;overflow=hidden;strokeColor=#82b366;fontSize=16;" parent="ydyuHpFRoIkNP3I8t9Dv-52" vertex="1">
          <mxGeometry x="150" width="120" height="30" as="geometry">
            <mxRectangle width="120" height="30" as="alternateBounds" />
          </mxGeometry>
        </mxCell>
        <mxCell id="ydyuHpFRoIkNP3I8t9Dv-61" value="" style="shape=tableRow;horizontal=0;startSize=0;swimlaneHead=0;swimlaneBody=0;top=0;left=0;bottom=0;right=0;collapsible=0;dropTarget=0;fillColor=none;points=[[0,0.5],[1,0.5]];portConstraint=eastwest;strokeColor=inherit;fontSize=16;" parent="ydyuHpFRoIkNP3I8t9Dv-48" vertex="1">
          <mxGeometry y="90" width="270" height="30" as="geometry" />
        </mxCell>
        <mxCell id="ydyuHpFRoIkNP3I8t9Dv-62" value="char(2)" style="shape=partialRectangle;html=1;whiteSpace=wrap;connectable=0;fillColor=none;top=0;left=0;bottom=0;right=0;overflow=hidden;strokeColor=inherit;fontSize=16;" parent="ydyuHpFRoIkNP3I8t9Dv-61" vertex="1">
          <mxGeometry width="150" height="30" as="geometry">
            <mxRectangle width="150" height="30" as="alternateBounds" />
          </mxGeometry>
        </mxCell>
        <mxCell id="ydyuHpFRoIkNP3I8t9Dv-63" value="ClientID" style="shape=partialRectangle;html=1;whiteSpace=wrap;connectable=0;fillColor=#d5e8d4;top=0;left=0;bottom=0;right=0;align=left;spacingLeft=6;overflow=hidden;strokeColor=#82b366;fontSize=16;" parent="ydyuHpFRoIkNP3I8t9Dv-61" vertex="1">
          <mxGeometry x="150" width="120" height="30" as="geometry">
            <mxRectangle width="120" height="30" as="alternateBounds" />
          </mxGeometry>
        </mxCell>
        <mxCell id="ydyuHpFRoIkNP3I8t9Dv-58" value="" style="shape=tableRow;horizontal=0;startSize=0;swimlaneHead=0;swimlaneBody=0;top=0;left=0;bottom=0;right=0;collapsible=0;dropTarget=0;fillColor=none;points=[[0,0.5],[1,0.5]];portConstraint=eastwest;strokeColor=inherit;fontSize=16;" parent="ydyuHpFRoIkNP3I8t9Dv-48" vertex="1">
          <mxGeometry y="120" width="270" height="30" as="geometry" />
        </mxCell>
        <mxCell id="ydyuHpFRoIkNP3I8t9Dv-59" value="varchar(8)" style="shape=partialRectangle;html=1;whiteSpace=wrap;connectable=0;fillColor=none;top=0;left=0;bottom=0;right=0;overflow=hidden;strokeColor=inherit;fontSize=16;" parent="ydyuHpFRoIkNP3I8t9Dv-58" vertex="1">
          <mxGeometry width="150" height="30" as="geometry">
            <mxRectangle width="150" height="30" as="alternateBounds" />
          </mxGeometry>
        </mxCell>
        <mxCell id="ydyuHpFRoIkNP3I8t9Dv-60" value="ReceptID" style="shape=partialRectangle;html=1;whiteSpace=wrap;connectable=0;fillColor=#d5e8d4;top=0;left=0;bottom=0;right=0;align=left;spacingLeft=6;overflow=hidden;strokeColor=#82b366;fontSize=16;" parent="ydyuHpFRoIkNP3I8t9Dv-58" vertex="1">
          <mxGeometry x="150" width="120" height="30" as="geometry">
            <mxRectangle width="120" height="30" as="alternateBounds" />
          </mxGeometry>
        </mxCell>
        <mxCell id="ydyuHpFRoIkNP3I8t9Dv-55" value="" style="shape=tableRow;horizontal=0;startSize=0;swimlaneHead=0;swimlaneBody=0;top=0;left=0;bottom=0;right=0;collapsible=0;dropTarget=0;fillColor=none;points=[[0,0.5],[1,0.5]];portConstraint=eastwest;strokeColor=inherit;fontSize=16;" parent="ydyuHpFRoIkNP3I8t9Dv-48" vertex="1">
          <mxGeometry y="150" width="270" height="30" as="geometry" />
        </mxCell>
        <mxCell id="ydyuHpFRoIkNP3I8t9Dv-56" value="int" style="shape=partialRectangle;html=1;whiteSpace=wrap;connectable=0;fillColor=none;top=0;left=0;bottom=0;right=0;overflow=hidden;strokeColor=inherit;fontSize=16;" parent="ydyuHpFRoIkNP3I8t9Dv-55" vertex="1">
          <mxGeometry width="150" height="30" as="geometry">
            <mxRectangle width="150" height="30" as="alternateBounds" />
          </mxGeometry>
        </mxCell>
        <mxCell id="ydyuHpFRoIkNP3I8t9Dv-57" value="Total_Price" style="shape=partialRectangle;html=1;whiteSpace=wrap;connectable=0;fillColor=none;top=0;left=0;bottom=0;right=0;align=left;spacingLeft=6;overflow=hidden;strokeColor=inherit;fontSize=16;" parent="ydyuHpFRoIkNP3I8t9Dv-55" vertex="1">
          <mxGeometry x="150" width="120" height="30" as="geometry">
            <mxRectangle width="120" height="30" as="alternateBounds" />
          </mxGeometry>
        </mxCell>
        <mxCell id="ydyuHpFRoIkNP3I8t9Dv-64" value="Passenger" style="shape=table;startSize=30;container=1;collapsible=0;childLayout=tableLayout;fixedRows=1;rowLines=0;fontStyle=0;strokeColor=default;fontSize=16;" parent="1" vertex="1">
          <mxGeometry x="-100" y="840" width="250" height="120" as="geometry" />
        </mxCell>
        <mxCell id="ydyuHpFRoIkNP3I8t9Dv-65" value="" style="shape=tableRow;horizontal=0;startSize=0;swimlaneHead=0;swimlaneBody=0;top=0;left=0;bottom=0;right=0;collapsible=0;dropTarget=0;fillColor=none;points=[[0,0.5],[1,0.5]];portConstraint=eastwest;strokeColor=inherit;fontSize=16;" parent="ydyuHpFRoIkNP3I8t9Dv-64" vertex="1">
          <mxGeometry y="30" width="250" height="30" as="geometry" />
        </mxCell>
        <mxCell id="ydyuHpFRoIkNP3I8t9Dv-66" value="char(9)" style="shape=partialRectangle;html=1;whiteSpace=wrap;connectable=0;fillColor=none;top=0;left=0;bottom=0;right=0;overflow=hidden;pointerEvents=1;strokeColor=inherit;fontSize=16;" parent="ydyuHpFRoIkNP3I8t9Dv-65" vertex="1">
          <mxGeometry width="100" height="30" as="geometry">
            <mxRectangle width="100" height="30" as="alternateBounds" />
          </mxGeometry>
        </mxCell>
        <mxCell id="ydyuHpFRoIkNP3I8t9Dv-67" value="Passport_No" style="shape=partialRectangle;html=1;whiteSpace=wrap;connectable=0;fillColor=#f8cecc;top=0;left=0;bottom=0;right=0;align=left;spacingLeft=6;overflow=hidden;strokeColor=#b85450;fontSize=16;" parent="ydyuHpFRoIkNP3I8t9Dv-65" vertex="1">
          <mxGeometry x="100" width="150" height="30" as="geometry">
            <mxRectangle width="150" height="30" as="alternateBounds" />
          </mxGeometry>
        </mxCell>
        <mxCell id="ydyuHpFRoIkNP3I8t9Dv-68" value="" style="shape=tableRow;horizontal=0;startSize=0;swimlaneHead=0;swimlaneBody=0;top=0;left=0;bottom=0;right=0;collapsible=0;dropTarget=0;fillColor=none;points=[[0,0.5],[1,0.5]];portConstraint=eastwest;strokeColor=inherit;fontSize=16;" parent="ydyuHpFRoIkNP3I8t9Dv-64" vertex="1">
          <mxGeometry y="60" width="250" height="30" as="geometry" />
        </mxCell>
        <mxCell id="ydyuHpFRoIkNP3I8t9Dv-69" value="varchar(25)" style="shape=partialRectangle;html=1;whiteSpace=wrap;connectable=0;fillColor=none;top=0;left=0;bottom=0;right=0;overflow=hidden;strokeColor=inherit;fontSize=16;" parent="ydyuHpFRoIkNP3I8t9Dv-68" vertex="1">
          <mxGeometry width="100" height="30" as="geometry">
            <mxRectangle width="100" height="30" as="alternateBounds" />
          </mxGeometry>
        </mxCell>
        <mxCell id="ydyuHpFRoIkNP3I8t9Dv-70" value="First_Name" style="shape=partialRectangle;html=1;whiteSpace=wrap;connectable=0;fillColor=none;top=0;left=0;bottom=0;right=0;align=left;spacingLeft=6;overflow=hidden;strokeColor=inherit;fontSize=16;" parent="ydyuHpFRoIkNP3I8t9Dv-68" vertex="1">
          <mxGeometry x="100" width="150" height="30" as="geometry">
            <mxRectangle width="150" height="30" as="alternateBounds" />
          </mxGeometry>
        </mxCell>
        <mxCell id="ydyuHpFRoIkNP3I8t9Dv-71" value="" style="shape=tableRow;horizontal=0;startSize=0;swimlaneHead=0;swimlaneBody=0;top=0;left=0;bottom=0;right=0;collapsible=0;dropTarget=0;fillColor=none;points=[[0,0.5],[1,0.5]];portConstraint=eastwest;strokeColor=inherit;fontSize=16;" parent="ydyuHpFRoIkNP3I8t9Dv-64" vertex="1">
          <mxGeometry y="90" width="250" height="30" as="geometry" />
        </mxCell>
        <mxCell id="ydyuHpFRoIkNP3I8t9Dv-72" value="varchar(25)" style="shape=partialRectangle;html=1;whiteSpace=wrap;connectable=0;fillColor=none;top=0;left=0;bottom=0;right=0;overflow=hidden;strokeColor=inherit;fontSize=16;" parent="ydyuHpFRoIkNP3I8t9Dv-71" vertex="1">
          <mxGeometry width="100" height="30" as="geometry">
            <mxRectangle width="100" height="30" as="alternateBounds" />
          </mxGeometry>
        </mxCell>
        <mxCell id="ydyuHpFRoIkNP3I8t9Dv-73" value="Last_Name" style="shape=partialRectangle;html=1;whiteSpace=wrap;connectable=0;fillColor=none;top=0;left=0;bottom=0;right=0;align=left;spacingLeft=6;overflow=hidden;strokeColor=inherit;fontSize=16;" parent="ydyuHpFRoIkNP3I8t9Dv-71" vertex="1">
          <mxGeometry x="100" width="150" height="30" as="geometry">
            <mxRectangle width="150" height="30" as="alternateBounds" />
          </mxGeometry>
        </mxCell>
        <mxCell id="ydyuHpFRoIkNP3I8t9Dv-79" value="Payment" style="shape=table;startSize=30;container=1;collapsible=0;childLayout=tableLayout;fixedRows=1;rowLines=0;fontStyle=0;strokeColor=default;fontSize=16;" parent="1" vertex="1">
          <mxGeometry x="1241" y="490" width="310" height="150" as="geometry" />
        </mxCell>
        <mxCell id="ydyuHpFRoIkNP3I8t9Dv-80" value="" style="shape=tableRow;horizontal=0;startSize=0;swimlaneHead=0;swimlaneBody=0;top=0;left=0;bottom=0;right=0;collapsible=0;dropTarget=0;fillColor=none;points=[[0,0.5],[1,0.5]];portConstraint=eastwest;strokeColor=inherit;fontSize=16;" parent="ydyuHpFRoIkNP3I8t9Dv-79" vertex="1">
          <mxGeometry y="30" width="310" height="30" as="geometry" />
        </mxCell>
        <mxCell id="ydyuHpFRoIkNP3I8t9Dv-81" value="varchar(8)" style="shape=partialRectangle;html=1;whiteSpace=wrap;connectable=0;fillColor=none;top=0;left=0;bottom=0;right=0;overflow=hidden;pointerEvents=1;strokeColor=inherit;fontSize=16;" parent="ydyuHpFRoIkNP3I8t9Dv-80" vertex="1">
          <mxGeometry width="120" height="30" as="geometry">
            <mxRectangle width="120" height="30" as="alternateBounds" />
          </mxGeometry>
        </mxCell>
        <mxCell id="ydyuHpFRoIkNP3I8t9Dv-82" value="PaymentID" style="shape=partialRectangle;html=1;whiteSpace=wrap;connectable=0;fillColor=#f8cecc;top=0;left=0;bottom=0;right=0;align=left;spacingLeft=6;overflow=hidden;strokeColor=#b85450;fontSize=16;" parent="ydyuHpFRoIkNP3I8t9Dv-80" vertex="1">
          <mxGeometry x="120" width="190" height="30" as="geometry">
            <mxRectangle width="190" height="30" as="alternateBounds" />
          </mxGeometry>
        </mxCell>
        <mxCell id="ydyuHpFRoIkNP3I8t9Dv-83" value="" style="shape=tableRow;horizontal=0;startSize=0;swimlaneHead=0;swimlaneBody=0;top=0;left=0;bottom=0;right=0;collapsible=0;dropTarget=0;fillColor=none;points=[[0,0.5],[1,0.5]];portConstraint=eastwest;strokeColor=inherit;fontSize=16;" parent="ydyuHpFRoIkNP3I8t9Dv-79" vertex="1">
          <mxGeometry y="60" width="310" height="30" as="geometry" />
        </mxCell>
        <mxCell id="ydyuHpFRoIkNP3I8t9Dv-84" value="varchar(8)" style="shape=partialRectangle;html=1;whiteSpace=wrap;connectable=0;fillColor=none;top=0;left=0;bottom=0;right=0;overflow=hidden;strokeColor=inherit;fontSize=16;" parent="ydyuHpFRoIkNP3I8t9Dv-83" vertex="1">
          <mxGeometry width="120" height="30" as="geometry">
            <mxRectangle width="120" height="30" as="alternateBounds" />
          </mxGeometry>
        </mxCell>
        <mxCell id="ydyuHpFRoIkNP3I8t9Dv-85" value="PNR" style="shape=partialRectangle;html=1;whiteSpace=wrap;connectable=0;fillColor=#d5e8d4;top=0;left=0;bottom=0;right=0;align=left;spacingLeft=6;overflow=hidden;strokeColor=#82b366;fontSize=16;" parent="ydyuHpFRoIkNP3I8t9Dv-83" vertex="1">
          <mxGeometry x="120" width="190" height="30" as="geometry">
            <mxRectangle width="190" height="30" as="alternateBounds" />
          </mxGeometry>
        </mxCell>
        <mxCell id="ydyuHpFRoIkNP3I8t9Dv-89" value="" style="shape=tableRow;horizontal=0;startSize=0;swimlaneHead=0;swimlaneBody=0;top=0;left=0;bottom=0;right=0;collapsible=0;dropTarget=0;fillColor=none;points=[[0,0.5],[1,0.5]];portConstraint=eastwest;strokeColor=inherit;fontSize=16;" parent="ydyuHpFRoIkNP3I8t9Dv-79" vertex="1">
          <mxGeometry y="90" width="310" height="30" as="geometry" />
        </mxCell>
        <mxCell id="ydyuHpFRoIkNP3I8t9Dv-90" value="char(16)" style="shape=partialRectangle;html=1;whiteSpace=wrap;connectable=0;fillColor=none;top=0;left=0;bottom=0;right=0;overflow=hidden;strokeColor=inherit;fontSize=16;" parent="ydyuHpFRoIkNP3I8t9Dv-89" vertex="1">
          <mxGeometry width="120" height="30" as="geometry">
            <mxRectangle width="120" height="30" as="alternateBounds" />
          </mxGeometry>
        </mxCell>
        <mxCell id="ydyuHpFRoIkNP3I8t9Dv-91" value="Card_Number" style="shape=partialRectangle;html=1;whiteSpace=wrap;connectable=0;fillColor=none;top=0;left=0;bottom=0;right=0;align=left;spacingLeft=6;overflow=hidden;strokeColor=inherit;fontSize=16;" parent="ydyuHpFRoIkNP3I8t9Dv-89" vertex="1">
          <mxGeometry x="120" width="190" height="30" as="geometry">
            <mxRectangle width="190" height="30" as="alternateBounds" />
          </mxGeometry>
        </mxCell>
        <mxCell id="ydyuHpFRoIkNP3I8t9Dv-86" value="" style="shape=tableRow;horizontal=0;startSize=0;swimlaneHead=0;swimlaneBody=0;top=0;left=0;bottom=0;right=0;collapsible=0;dropTarget=0;fillColor=none;points=[[0,0.5],[1,0.5]];portConstraint=eastwest;strokeColor=inherit;fontSize=16;" parent="ydyuHpFRoIkNP3I8t9Dv-79" vertex="1">
          <mxGeometry y="120" width="310" height="30" as="geometry" />
        </mxCell>
        <mxCell id="ydyuHpFRoIkNP3I8t9Dv-87" value="varchar(15)" style="shape=partialRectangle;html=1;whiteSpace=wrap;connectable=0;fillColor=none;top=0;left=0;bottom=0;right=0;overflow=hidden;strokeColor=inherit;fontSize=16;" parent="ydyuHpFRoIkNP3I8t9Dv-86" vertex="1">
          <mxGeometry width="120" height="30" as="geometry">
            <mxRectangle width="120" height="30" as="alternateBounds" />
          </mxGeometry>
        </mxCell>
        <mxCell id="ydyuHpFRoIkNP3I8t9Dv-88" value="Payment_Type" style="shape=partialRectangle;html=1;whiteSpace=wrap;connectable=0;fillColor=none;top=0;left=0;bottom=0;right=0;align=left;spacingLeft=6;overflow=hidden;strokeColor=inherit;fontSize=16;" parent="ydyuHpFRoIkNP3I8t9Dv-86" vertex="1">
          <mxGeometry x="120" width="190" height="30" as="geometry">
            <mxRectangle width="190" height="30" as="alternateBounds" />
          </mxGeometry>
        </mxCell>
        <mxCell id="ydyuHpFRoIkNP3I8t9Dv-92" value="Baggage" style="shape=table;startSize=30;container=1;collapsible=0;childLayout=tableLayout;fixedRows=1;rowLines=0;fontStyle=0;strokeColor=default;fontSize=16;" parent="1" vertex="1">
          <mxGeometry x="290" y="1220" width="290" height="140" as="geometry" />
        </mxCell>
        <mxCell id="ydyuHpFRoIkNP3I8t9Dv-93" value="" style="shape=tableRow;horizontal=0;startSize=0;swimlaneHead=0;swimlaneBody=0;top=0;left=0;bottom=0;right=0;collapsible=0;dropTarget=0;fillColor=none;points=[[0,0.5],[1,0.5]];portConstraint=eastwest;strokeColor=inherit;fontSize=16;" parent="ydyuHpFRoIkNP3I8t9Dv-92" vertex="1">
          <mxGeometry y="30" width="290" height="30" as="geometry" />
        </mxCell>
        <mxCell id="ydyuHpFRoIkNP3I8t9Dv-94" value="varchar(4)" style="shape=partialRectangle;html=1;whiteSpace=wrap;connectable=0;fillColor=none;top=0;left=0;bottom=0;right=0;overflow=hidden;pointerEvents=1;strokeColor=inherit;fontSize=16;" parent="ydyuHpFRoIkNP3I8t9Dv-93" vertex="1">
          <mxGeometry width="140" height="30" as="geometry">
            <mxRectangle width="140" height="30" as="alternateBounds" />
          </mxGeometry>
        </mxCell>
        <mxCell id="ydyuHpFRoIkNP3I8t9Dv-95" value="BaggageID" style="shape=partialRectangle;html=1;whiteSpace=wrap;connectable=0;fillColor=#f8cecc;top=0;left=0;bottom=0;right=0;align=left;spacingLeft=6;overflow=hidden;strokeColor=#b85450;fontSize=16;" parent="ydyuHpFRoIkNP3I8t9Dv-93" vertex="1">
          <mxGeometry x="140" width="150" height="30" as="geometry">
            <mxRectangle width="150" height="30" as="alternateBounds" />
          </mxGeometry>
        </mxCell>
        <mxCell id="ydyuHpFRoIkNP3I8t9Dv-96" value="" style="shape=tableRow;horizontal=0;startSize=0;swimlaneHead=0;swimlaneBody=0;top=0;left=0;bottom=0;right=0;collapsible=0;dropTarget=0;fillColor=none;points=[[0,0.5],[1,0.5]];portConstraint=eastwest;strokeColor=inherit;fontSize=16;" parent="ydyuHpFRoIkNP3I8t9Dv-92" vertex="1">
          <mxGeometry y="60" width="290" height="30" as="geometry" />
        </mxCell>
        <mxCell id="ydyuHpFRoIkNP3I8t9Dv-97" value="varchar(8)" style="shape=partialRectangle;html=1;whiteSpace=wrap;connectable=0;fillColor=none;top=0;left=0;bottom=0;right=0;overflow=hidden;strokeColor=inherit;fontSize=16;" parent="ydyuHpFRoIkNP3I8t9Dv-96" vertex="1">
          <mxGeometry width="140" height="30" as="geometry">
            <mxRectangle width="140" height="30" as="alternateBounds" />
          </mxGeometry>
        </mxCell>
        <mxCell id="ydyuHpFRoIkNP3I8t9Dv-98" value="PNR" style="shape=partialRectangle;html=1;whiteSpace=wrap;connectable=0;fillColor=#d5e8d4;top=0;left=0;bottom=0;right=0;align=left;spacingLeft=6;overflow=hidden;strokeColor=#82b366;fontSize=16;" parent="ydyuHpFRoIkNP3I8t9Dv-96" vertex="1">
          <mxGeometry x="140" width="150" height="30" as="geometry">
            <mxRectangle width="150" height="30" as="alternateBounds" />
          </mxGeometry>
        </mxCell>
        <mxCell id="ydyuHpFRoIkNP3I8t9Dv-99" value="" style="shape=tableRow;horizontal=0;startSize=0;swimlaneHead=0;swimlaneBody=0;top=0;left=0;bottom=0;right=0;collapsible=0;dropTarget=0;fillColor=none;points=[[0,0.5],[1,0.5]];portConstraint=eastwest;strokeColor=inherit;fontSize=16;" parent="ydyuHpFRoIkNP3I8t9Dv-92" vertex="1">
          <mxGeometry y="90" width="290" height="30" as="geometry" />
        </mxCell>
        <mxCell id="ydyuHpFRoIkNP3I8t9Dv-100" value="int" style="shape=partialRectangle;html=1;whiteSpace=wrap;connectable=0;fillColor=none;top=0;left=0;bottom=0;right=0;overflow=hidden;strokeColor=inherit;fontSize=16;" parent="ydyuHpFRoIkNP3I8t9Dv-99" vertex="1">
          <mxGeometry width="140" height="30" as="geometry">
            <mxRectangle width="140" height="30" as="alternateBounds" />
          </mxGeometry>
        </mxCell>
        <mxCell id="ydyuHpFRoIkNP3I8t9Dv-101" value="Weight" style="shape=partialRectangle;html=1;whiteSpace=wrap;connectable=0;fillColor=none;top=0;left=0;bottom=0;right=0;align=left;spacingLeft=6;overflow=hidden;strokeColor=inherit;fontSize=16;" parent="ydyuHpFRoIkNP3I8t9Dv-99" vertex="1">
          <mxGeometry x="140" width="150" height="30" as="geometry">
            <mxRectangle width="150" height="30" as="alternateBounds" />
          </mxGeometry>
        </mxCell>
        <mxCell id="ydyuHpFRoIkNP3I8t9Dv-102" value="" style="shape=tableRow;horizontal=0;startSize=0;swimlaneHead=0;swimlaneBody=0;top=0;left=0;bottom=0;right=0;collapsible=0;dropTarget=0;fillColor=none;points=[[0,0.5],[1,0.5]];portConstraint=eastwest;strokeColor=inherit;fontSize=16;" parent="ydyuHpFRoIkNP3I8t9Dv-92" vertex="1">
          <mxGeometry y="120" width="290" height="20" as="geometry" />
        </mxCell>
        <mxCell id="ydyuHpFRoIkNP3I8t9Dv-103" value="int" style="shape=partialRectangle;html=1;whiteSpace=wrap;connectable=0;fillColor=none;top=0;left=0;bottom=0;right=0;overflow=hidden;strokeColor=inherit;fontSize=16;" parent="ydyuHpFRoIkNP3I8t9Dv-102" vertex="1">
          <mxGeometry width="140" height="20" as="geometry">
            <mxRectangle width="140" height="20" as="alternateBounds" />
          </mxGeometry>
        </mxCell>
        <mxCell id="ydyuHpFRoIkNP3I8t9Dv-104" value="Price" style="shape=partialRectangle;html=1;whiteSpace=wrap;connectable=0;fillColor=none;top=0;left=0;bottom=0;right=0;align=left;spacingLeft=6;overflow=hidden;strokeColor=inherit;fontSize=16;" parent="ydyuHpFRoIkNP3I8t9Dv-102" vertex="1">
          <mxGeometry x="140" width="150" height="20" as="geometry">
            <mxRectangle width="150" height="20" as="alternateBounds" />
          </mxGeometry>
        </mxCell>
        <mxCell id="ydyuHpFRoIkNP3I8t9Dv-105" value="Employee" style="shape=table;startSize=30;container=1;collapsible=0;childLayout=tableLayout;fixedRows=1;rowLines=0;fontStyle=0;strokeColor=default;fontSize=16;" parent="1" vertex="1">
          <mxGeometry x="435" y="1420" width="300" height="180" as="geometry" />
        </mxCell>
        <mxCell id="ydyuHpFRoIkNP3I8t9Dv-106" value="" style="shape=tableRow;horizontal=0;startSize=0;swimlaneHead=0;swimlaneBody=0;top=0;left=0;bottom=0;right=0;collapsible=0;dropTarget=0;fillColor=none;points=[[0,0.5],[1,0.5]];portConstraint=eastwest;strokeColor=inherit;fontSize=16;" parent="ydyuHpFRoIkNP3I8t9Dv-105" vertex="1">
          <mxGeometry y="30" width="300" height="30" as="geometry" />
        </mxCell>
        <mxCell id="ydyuHpFRoIkNP3I8t9Dv-107" value="varchar(8)" style="shape=partialRectangle;html=1;whiteSpace=wrap;connectable=0;fillColor=none;top=0;left=0;bottom=0;right=0;overflow=hidden;pointerEvents=1;strokeColor=inherit;fontSize=16;" parent="ydyuHpFRoIkNP3I8t9Dv-106" vertex="1">
          <mxGeometry width="140" height="30" as="geometry">
            <mxRectangle width="140" height="30" as="alternateBounds" />
          </mxGeometry>
        </mxCell>
        <mxCell id="ydyuHpFRoIkNP3I8t9Dv-108" value="EmpID" style="shape=partialRectangle;html=1;whiteSpace=wrap;connectable=0;fillColor=#f8cecc;top=0;left=0;bottom=0;right=0;align=left;spacingLeft=6;overflow=hidden;strokeColor=#b85450;fontSize=16;" parent="ydyuHpFRoIkNP3I8t9Dv-106" vertex="1">
          <mxGeometry x="140" width="160" height="30" as="geometry">
            <mxRectangle width="160" height="30" as="alternateBounds" />
          </mxGeometry>
        </mxCell>
        <mxCell id="ydyuHpFRoIkNP3I8t9Dv-109" value="" style="shape=tableRow;horizontal=0;startSize=0;swimlaneHead=0;swimlaneBody=0;top=0;left=0;bottom=0;right=0;collapsible=0;dropTarget=0;fillColor=none;points=[[0,0.5],[1,0.5]];portConstraint=eastwest;strokeColor=inherit;fontSize=16;" parent="ydyuHpFRoIkNP3I8t9Dv-105" vertex="1">
          <mxGeometry y="60" width="300" height="30" as="geometry" />
        </mxCell>
        <mxCell id="ydyuHpFRoIkNP3I8t9Dv-110" value="varchar(16)" style="shape=partialRectangle;html=1;whiteSpace=wrap;connectable=0;fillColor=none;top=0;left=0;bottom=0;right=0;overflow=hidden;strokeColor=inherit;fontSize=16;" parent="ydyuHpFRoIkNP3I8t9Dv-109" vertex="1">
          <mxGeometry width="140" height="30" as="geometry">
            <mxRectangle width="140" height="30" as="alternateBounds" />
          </mxGeometry>
        </mxCell>
        <mxCell id="ydyuHpFRoIkNP3I8t9Dv-111" value="Tel_No" style="shape=partialRectangle;html=1;whiteSpace=wrap;connectable=0;fillColor=none;top=0;left=0;bottom=0;right=0;align=left;spacingLeft=6;overflow=hidden;strokeColor=inherit;fontSize=16;" parent="ydyuHpFRoIkNP3I8t9Dv-109" vertex="1">
          <mxGeometry x="140" width="160" height="30" as="geometry">
            <mxRectangle width="160" height="30" as="alternateBounds" />
          </mxGeometry>
        </mxCell>
        <mxCell id="ydyuHpFRoIkNP3I8t9Dv-112" value="" style="shape=tableRow;horizontal=0;startSize=0;swimlaneHead=0;swimlaneBody=0;top=0;left=0;bottom=0;right=0;collapsible=0;dropTarget=0;fillColor=none;points=[[0,0.5],[1,0.5]];portConstraint=eastwest;strokeColor=inherit;fontSize=16;" parent="ydyuHpFRoIkNP3I8t9Dv-105" vertex="1">
          <mxGeometry y="90" width="300" height="30" as="geometry" />
        </mxCell>
        <mxCell id="ydyuHpFRoIkNP3I8t9Dv-113" value="varchar(15)" style="shape=partialRectangle;html=1;whiteSpace=wrap;connectable=0;fillColor=none;top=0;left=0;bottom=0;right=0;overflow=hidden;strokeColor=inherit;fontSize=16;" parent="ydyuHpFRoIkNP3I8t9Dv-112" vertex="1">
          <mxGeometry width="140" height="30" as="geometry">
            <mxRectangle width="140" height="30" as="alternateBounds" />
          </mxGeometry>
        </mxCell>
        <mxCell id="ydyuHpFRoIkNP3I8t9Dv-114" value="Apartment" style="shape=partialRectangle;html=1;whiteSpace=wrap;connectable=0;fillColor=none;top=0;left=0;bottom=0;right=0;align=left;spacingLeft=6;overflow=hidden;strokeColor=inherit;fontSize=16;" parent="ydyuHpFRoIkNP3I8t9Dv-112" vertex="1">
          <mxGeometry x="140" width="160" height="30" as="geometry">
            <mxRectangle width="160" height="30" as="alternateBounds" />
          </mxGeometry>
        </mxCell>
        <mxCell id="ydyuHpFRoIkNP3I8t9Dv-115" value="" style="shape=tableRow;horizontal=0;startSize=0;swimlaneHead=0;swimlaneBody=0;top=0;left=0;bottom=0;right=0;collapsible=0;dropTarget=0;fillColor=none;points=[[0,0.5],[1,0.5]];portConstraint=eastwest;strokeColor=inherit;fontSize=16;" parent="ydyuHpFRoIkNP3I8t9Dv-105" vertex="1">
          <mxGeometry y="120" width="300" height="30" as="geometry" />
        </mxCell>
        <mxCell id="ydyuHpFRoIkNP3I8t9Dv-116" value="varchar(25)" style="shape=partialRectangle;html=1;whiteSpace=wrap;connectable=0;fillColor=none;top=0;left=0;bottom=0;right=0;overflow=hidden;strokeColor=inherit;fontSize=16;" parent="ydyuHpFRoIkNP3I8t9Dv-115" vertex="1">
          <mxGeometry width="140" height="30" as="geometry">
            <mxRectangle width="140" height="30" as="alternateBounds" />
          </mxGeometry>
        </mxCell>
        <mxCell id="ydyuHpFRoIkNP3I8t9Dv-117" value="Street" style="shape=partialRectangle;html=1;whiteSpace=wrap;connectable=0;fillColor=none;top=0;left=0;bottom=0;right=0;align=left;spacingLeft=6;overflow=hidden;strokeColor=inherit;fontSize=16;" parent="ydyuHpFRoIkNP3I8t9Dv-115" vertex="1">
          <mxGeometry x="140" width="160" height="30" as="geometry">
            <mxRectangle width="160" height="30" as="alternateBounds" />
          </mxGeometry>
        </mxCell>
        <mxCell id="ydyuHpFRoIkNP3I8t9Dv-118" value="" style="shape=tableRow;horizontal=0;startSize=0;swimlaneHead=0;swimlaneBody=0;top=0;left=0;bottom=0;right=0;collapsible=0;dropTarget=0;fillColor=none;points=[[0,0.5],[1,0.5]];portConstraint=eastwest;strokeColor=inherit;fontSize=16;" parent="ydyuHpFRoIkNP3I8t9Dv-105" vertex="1">
          <mxGeometry y="150" width="300" height="30" as="geometry" />
        </mxCell>
        <mxCell id="ydyuHpFRoIkNP3I8t9Dv-119" value="varchar(20)" style="shape=partialRectangle;html=1;whiteSpace=wrap;connectable=0;fillColor=none;top=0;left=0;bottom=0;right=0;overflow=hidden;strokeColor=inherit;fontSize=16;" parent="ydyuHpFRoIkNP3I8t9Dv-118" vertex="1">
          <mxGeometry width="140" height="30" as="geometry">
            <mxRectangle width="140" height="30" as="alternateBounds" />
          </mxGeometry>
        </mxCell>
        <mxCell id="ydyuHpFRoIkNP3I8t9Dv-120" value="City" style="shape=partialRectangle;html=1;whiteSpace=wrap;connectable=0;fillColor=none;top=0;left=0;bottom=0;right=0;align=left;spacingLeft=6;overflow=hidden;strokeColor=inherit;fontSize=16;" parent="ydyuHpFRoIkNP3I8t9Dv-118" vertex="1">
          <mxGeometry x="140" width="160" height="30" as="geometry">
            <mxRectangle width="160" height="30" as="alternateBounds" />
          </mxGeometry>
        </mxCell>
        <mxCell id="ydyuHpFRoIkNP3I8t9Dv-121" value="Crew" style="shape=table;startSize=30;container=1;collapsible=0;childLayout=tableLayout;fixedRows=1;rowLines=0;fontStyle=0;strokeColor=default;fontSize=16;" parent="1" vertex="1">
          <mxGeometry x="930" y="1500" width="320" height="190" as="geometry" />
        </mxCell>
        <mxCell id="ydyuHpFRoIkNP3I8t9Dv-122" value="" style="shape=tableRow;horizontal=0;startSize=0;swimlaneHead=0;swimlaneBody=0;top=0;left=0;bottom=0;right=0;collapsible=0;dropTarget=0;fillColor=none;points=[[0,0.5],[1,0.5]];portConstraint=eastwest;strokeColor=inherit;fontSize=16;" parent="ydyuHpFRoIkNP3I8t9Dv-121" vertex="1">
          <mxGeometry y="30" width="320" height="30" as="geometry" />
        </mxCell>
        <mxCell id="ydyuHpFRoIkNP3I8t9Dv-123" value="varchar(8)" style="shape=partialRectangle;html=1;whiteSpace=wrap;connectable=0;fillColor=none;top=0;left=0;bottom=0;right=0;overflow=hidden;pointerEvents=1;strokeColor=inherit;fontSize=16;" parent="ydyuHpFRoIkNP3I8t9Dv-122" vertex="1">
          <mxGeometry width="160" height="30" as="geometry">
            <mxRectangle width="160" height="30" as="alternateBounds" />
          </mxGeometry>
        </mxCell>
        <mxCell id="ydyuHpFRoIkNP3I8t9Dv-124" value="CrewID" style="shape=partialRectangle;html=1;whiteSpace=wrap;connectable=0;fillColor=#f8cecc;top=0;left=0;bottom=0;right=0;align=left;spacingLeft=6;overflow=hidden;strokeColor=#b85450;fontSize=16;" parent="ydyuHpFRoIkNP3I8t9Dv-122" vertex="1">
          <mxGeometry x="160" width="160" height="30" as="geometry">
            <mxRectangle width="160" height="30" as="alternateBounds" />
          </mxGeometry>
        </mxCell>
        <mxCell id="ydyuHpFRoIkNP3I8t9Dv-125" value="" style="shape=tableRow;horizontal=0;startSize=0;swimlaneHead=0;swimlaneBody=0;top=0;left=0;bottom=0;right=0;collapsible=0;dropTarget=0;fillColor=none;points=[[0,0.5],[1,0.5]];portConstraint=eastwest;strokeColor=inherit;fontSize=16;" parent="ydyuHpFRoIkNP3I8t9Dv-121" vertex="1">
          <mxGeometry y="60" width="320" height="40" as="geometry" />
        </mxCell>
        <mxCell id="ydyuHpFRoIkNP3I8t9Dv-126" value="varchar(25)" style="shape=partialRectangle;html=1;whiteSpace=wrap;connectable=0;fillColor=none;top=0;left=0;bottom=0;right=0;overflow=hidden;strokeColor=inherit;fontSize=16;" parent="ydyuHpFRoIkNP3I8t9Dv-125" vertex="1">
          <mxGeometry width="160" height="40" as="geometry">
            <mxRectangle width="160" height="40" as="alternateBounds" />
          </mxGeometry>
        </mxCell>
        <mxCell id="ydyuHpFRoIkNP3I8t9Dv-127" value="First_Name" style="shape=partialRectangle;html=1;whiteSpace=wrap;connectable=0;fillColor=none;top=0;left=0;bottom=0;right=0;align=left;spacingLeft=6;overflow=hidden;strokeColor=inherit;fontSize=16;" parent="ydyuHpFRoIkNP3I8t9Dv-125" vertex="1">
          <mxGeometry x="160" width="160" height="40" as="geometry">
            <mxRectangle width="160" height="40" as="alternateBounds" />
          </mxGeometry>
        </mxCell>
        <mxCell id="ydyuHpFRoIkNP3I8t9Dv-128" value="" style="shape=tableRow;horizontal=0;startSize=0;swimlaneHead=0;swimlaneBody=0;top=0;left=0;bottom=0;right=0;collapsible=0;dropTarget=0;fillColor=none;points=[[0,0.5],[1,0.5]];portConstraint=eastwest;strokeColor=inherit;fontSize=16;" parent="ydyuHpFRoIkNP3I8t9Dv-121" vertex="1">
          <mxGeometry y="100" width="320" height="30" as="geometry" />
        </mxCell>
        <mxCell id="ydyuHpFRoIkNP3I8t9Dv-129" value="varchar(25)" style="shape=partialRectangle;html=1;whiteSpace=wrap;connectable=0;fillColor=none;top=0;left=0;bottom=0;right=0;overflow=hidden;strokeColor=inherit;fontSize=16;" parent="ydyuHpFRoIkNP3I8t9Dv-128" vertex="1">
          <mxGeometry width="160" height="30" as="geometry">
            <mxRectangle width="160" height="30" as="alternateBounds" />
          </mxGeometry>
        </mxCell>
        <mxCell id="ydyuHpFRoIkNP3I8t9Dv-130" value="Last_Name" style="shape=partialRectangle;html=1;whiteSpace=wrap;connectable=0;fillColor=none;top=0;left=0;bottom=0;right=0;align=left;spacingLeft=6;overflow=hidden;strokeColor=inherit;fontSize=16;" parent="ydyuHpFRoIkNP3I8t9Dv-128" vertex="1">
          <mxGeometry x="160" width="160" height="30" as="geometry">
            <mxRectangle width="160" height="30" as="alternateBounds" />
          </mxGeometry>
        </mxCell>
        <mxCell id="ydyuHpFRoIkNP3I8t9Dv-131" value="" style="shape=tableRow;horizontal=0;startSize=0;swimlaneHead=0;swimlaneBody=0;top=0;left=0;bottom=0;right=0;collapsible=0;dropTarget=0;fillColor=none;points=[[0,0.5],[1,0.5]];portConstraint=eastwest;strokeColor=inherit;fontSize=16;" parent="ydyuHpFRoIkNP3I8t9Dv-121" vertex="1">
          <mxGeometry y="130" width="320" height="30" as="geometry" />
        </mxCell>
        <mxCell id="ydyuHpFRoIkNP3I8t9Dv-132" value="varchar(25)" style="shape=partialRectangle;html=1;whiteSpace=wrap;connectable=0;fillColor=none;top=0;left=0;bottom=0;right=0;overflow=hidden;strokeColor=inherit;fontSize=16;" parent="ydyuHpFRoIkNP3I8t9Dv-131" vertex="1">
          <mxGeometry width="160" height="30" as="geometry">
            <mxRectangle width="160" height="30" as="alternateBounds" />
          </mxGeometry>
        </mxCell>
        <mxCell id="ydyuHpFRoIkNP3I8t9Dv-133" value="Task" style="shape=partialRectangle;html=1;whiteSpace=wrap;connectable=0;fillColor=none;top=0;left=0;bottom=0;right=0;align=left;spacingLeft=6;overflow=hidden;strokeColor=inherit;fontSize=16;" parent="ydyuHpFRoIkNP3I8t9Dv-131" vertex="1">
          <mxGeometry x="160" width="160" height="30" as="geometry">
            <mxRectangle width="160" height="30" as="alternateBounds" />
          </mxGeometry>
        </mxCell>
        <mxCell id="ydyuHpFRoIkNP3I8t9Dv-134" value="" style="shape=tableRow;horizontal=0;startSize=0;swimlaneHead=0;swimlaneBody=0;top=0;left=0;bottom=0;right=0;collapsible=0;dropTarget=0;fillColor=none;points=[[0,0.5],[1,0.5]];portConstraint=eastwest;strokeColor=inherit;fontSize=16;" parent="ydyuHpFRoIkNP3I8t9Dv-121" vertex="1">
          <mxGeometry y="160" width="320" height="30" as="geometry" />
        </mxCell>
        <mxCell id="ydyuHpFRoIkNP3I8t9Dv-135" value="varchar(10)" style="shape=partialRectangle;html=1;whiteSpace=wrap;connectable=0;fillColor=none;top=0;left=0;bottom=0;right=0;overflow=hidden;strokeColor=inherit;fontSize=16;" parent="ydyuHpFRoIkNP3I8t9Dv-134" vertex="1">
          <mxGeometry width="160" height="30" as="geometry">
            <mxRectangle width="160" height="30" as="alternateBounds" />
          </mxGeometry>
        </mxCell>
        <mxCell id="ydyuHpFRoIkNP3I8t9Dv-136" value="CrewNo" style="shape=partialRectangle;html=1;whiteSpace=wrap;connectable=0;fillColor=none;top=0;left=0;bottom=0;right=0;align=left;spacingLeft=6;overflow=hidden;strokeColor=inherit;fontSize=16;" parent="ydyuHpFRoIkNP3I8t9Dv-134" vertex="1">
          <mxGeometry x="160" width="160" height="30" as="geometry">
            <mxRectangle width="160" height="30" as="alternateBounds" />
          </mxGeometry>
        </mxCell>
        <mxCell id="ydyuHpFRoIkNP3I8t9Dv-137" value="Receptionist" style="shape=table;startSize=30;container=1;collapsible=0;childLayout=tableLayout;fixedRows=1;rowLines=0;fontStyle=0;strokeColor=default;fontSize=16;" parent="1" vertex="1">
          <mxGeometry x="860" y="1080" width="260" height="120" as="geometry" />
        </mxCell>
        <mxCell id="ydyuHpFRoIkNP3I8t9Dv-138" value="" style="shape=tableRow;horizontal=0;startSize=0;swimlaneHead=0;swimlaneBody=0;top=0;left=0;bottom=0;right=0;collapsible=0;dropTarget=0;fillColor=none;points=[[0,0.5],[1,0.5]];portConstraint=eastwest;strokeColor=inherit;fontSize=16;" parent="ydyuHpFRoIkNP3I8t9Dv-137" vertex="1">
          <mxGeometry y="30" width="260" height="30" as="geometry" />
        </mxCell>
        <mxCell id="ydyuHpFRoIkNP3I8t9Dv-139" value="varchar(8)" style="shape=partialRectangle;html=1;whiteSpace=wrap;connectable=0;fillColor=none;top=0;left=0;bottom=0;right=0;overflow=hidden;pointerEvents=1;strokeColor=inherit;fontSize=16;" parent="ydyuHpFRoIkNP3I8t9Dv-138" vertex="1">
          <mxGeometry width="121" height="30" as="geometry">
            <mxRectangle width="121" height="30" as="alternateBounds" />
          </mxGeometry>
        </mxCell>
        <mxCell id="ydyuHpFRoIkNP3I8t9Dv-140" value="ReceptID" style="shape=partialRectangle;html=1;whiteSpace=wrap;connectable=0;fillColor=#f8cecc;top=0;left=0;bottom=0;right=0;align=left;spacingLeft=6;overflow=hidden;strokeColor=#b85450;fontSize=16;" parent="ydyuHpFRoIkNP3I8t9Dv-138" vertex="1">
          <mxGeometry x="121" width="139" height="30" as="geometry">
            <mxRectangle width="139" height="30" as="alternateBounds" />
          </mxGeometry>
        </mxCell>
        <mxCell id="ydyuHpFRoIkNP3I8t9Dv-141" value="" style="shape=tableRow;horizontal=0;startSize=0;swimlaneHead=0;swimlaneBody=0;top=0;left=0;bottom=0;right=0;collapsible=0;dropTarget=0;fillColor=none;points=[[0,0.5],[1,0.5]];portConstraint=eastwest;strokeColor=inherit;fontSize=16;" parent="ydyuHpFRoIkNP3I8t9Dv-137" vertex="1">
          <mxGeometry y="60" width="260" height="30" as="geometry" />
        </mxCell>
        <mxCell id="ydyuHpFRoIkNP3I8t9Dv-142" value="varchar(25)" style="shape=partialRectangle;html=1;whiteSpace=wrap;connectable=0;fillColor=none;top=0;left=0;bottom=0;right=0;overflow=hidden;strokeColor=inherit;fontSize=16;" parent="ydyuHpFRoIkNP3I8t9Dv-141" vertex="1">
          <mxGeometry width="121" height="30" as="geometry">
            <mxRectangle width="121" height="30" as="alternateBounds" />
          </mxGeometry>
        </mxCell>
        <mxCell id="ydyuHpFRoIkNP3I8t9Dv-143" value="First_Name" style="shape=partialRectangle;html=1;whiteSpace=wrap;connectable=0;fillColor=none;top=0;left=0;bottom=0;right=0;align=left;spacingLeft=6;overflow=hidden;strokeColor=inherit;fontSize=16;" parent="ydyuHpFRoIkNP3I8t9Dv-141" vertex="1">
          <mxGeometry x="121" width="139" height="30" as="geometry">
            <mxRectangle width="139" height="30" as="alternateBounds" />
          </mxGeometry>
        </mxCell>
        <mxCell id="ydyuHpFRoIkNP3I8t9Dv-144" value="" style="shape=tableRow;horizontal=0;startSize=0;swimlaneHead=0;swimlaneBody=0;top=0;left=0;bottom=0;right=0;collapsible=0;dropTarget=0;fillColor=none;points=[[0,0.5],[1,0.5]];portConstraint=eastwest;strokeColor=inherit;fontSize=16;" parent="ydyuHpFRoIkNP3I8t9Dv-137" vertex="1">
          <mxGeometry y="90" width="260" height="30" as="geometry" />
        </mxCell>
        <mxCell id="ydyuHpFRoIkNP3I8t9Dv-145" value="varchar(25)" style="shape=partialRectangle;html=1;whiteSpace=wrap;connectable=0;fillColor=none;top=0;left=0;bottom=0;right=0;overflow=hidden;strokeColor=inherit;fontSize=16;" parent="ydyuHpFRoIkNP3I8t9Dv-144" vertex="1">
          <mxGeometry width="121" height="30" as="geometry">
            <mxRectangle width="121" height="30" as="alternateBounds" />
          </mxGeometry>
        </mxCell>
        <mxCell id="ydyuHpFRoIkNP3I8t9Dv-146" value="Last_Name" style="shape=partialRectangle;html=1;whiteSpace=wrap;connectable=0;fillColor=none;top=0;left=0;bottom=0;right=0;align=left;spacingLeft=6;overflow=hidden;strokeColor=inherit;fontSize=16;" parent="ydyuHpFRoIkNP3I8t9Dv-144" vertex="1">
          <mxGeometry x="121" width="139" height="30" as="geometry">
            <mxRectangle width="139" height="30" as="alternateBounds" />
          </mxGeometry>
        </mxCell>
        <mxCell id="ydyuHpFRoIkNP3I8t9Dv-147" value="Flight" style="shape=table;startSize=30;container=1;collapsible=0;childLayout=tableLayout;fixedRows=1;rowLines=0;fontStyle=0;strokeColor=default;fontSize=16;" parent="1" vertex="1">
          <mxGeometry x="1400" y="720" width="280" height="190" as="geometry" />
        </mxCell>
        <mxCell id="ydyuHpFRoIkNP3I8t9Dv-148" value="" style="shape=tableRow;horizontal=0;startSize=0;swimlaneHead=0;swimlaneBody=0;top=0;left=0;bottom=0;right=0;collapsible=0;dropTarget=0;fillColor=none;points=[[0,0.5],[1,0.5]];portConstraint=eastwest;strokeColor=inherit;fontSize=16;" parent="ydyuHpFRoIkNP3I8t9Dv-147" vertex="1">
          <mxGeometry y="30" width="280" height="30" as="geometry" />
        </mxCell>
        <mxCell id="ydyuHpFRoIkNP3I8t9Dv-149" value="varchar(8)" style="shape=partialRectangle;html=1;whiteSpace=wrap;connectable=0;fillColor=none;top=0;left=0;bottom=0;right=0;overflow=hidden;pointerEvents=1;strokeColor=inherit;fontSize=16;" parent="ydyuHpFRoIkNP3I8t9Dv-148" vertex="1">
          <mxGeometry width="120" height="30" as="geometry">
            <mxRectangle width="120" height="30" as="alternateBounds" />
          </mxGeometry>
        </mxCell>
        <mxCell id="ydyuHpFRoIkNP3I8t9Dv-150" value="FlightID" style="shape=partialRectangle;html=1;whiteSpace=wrap;connectable=0;fillColor=#f8cecc;top=0;left=0;bottom=0;right=0;align=left;spacingLeft=6;overflow=hidden;strokeColor=#b85450;fontSize=16;" parent="ydyuHpFRoIkNP3I8t9Dv-148" vertex="1">
          <mxGeometry x="120" width="160" height="30" as="geometry">
            <mxRectangle width="160" height="30" as="alternateBounds" />
          </mxGeometry>
        </mxCell>
        <mxCell id="ydyuHpFRoIkNP3I8t9Dv-151" value="" style="shape=tableRow;horizontal=0;startSize=0;swimlaneHead=0;swimlaneBody=0;top=0;left=0;bottom=0;right=0;collapsible=0;dropTarget=0;fillColor=none;points=[[0,0.5],[1,0.5]];portConstraint=eastwest;strokeColor=inherit;fontSize=16;" parent="ydyuHpFRoIkNP3I8t9Dv-147" vertex="1">
          <mxGeometry y="60" width="280" height="40" as="geometry" />
        </mxCell>
        <mxCell id="ydyuHpFRoIkNP3I8t9Dv-152" value="varchar(6)" style="shape=partialRectangle;html=1;whiteSpace=wrap;connectable=0;fillColor=none;top=0;left=0;bottom=0;right=0;overflow=hidden;strokeColor=inherit;fontSize=16;" parent="ydyuHpFRoIkNP3I8t9Dv-151" vertex="1">
          <mxGeometry width="120" height="40" as="geometry">
            <mxRectangle width="120" height="40" as="alternateBounds" />
          </mxGeometry>
        </mxCell>
        <mxCell id="ydyuHpFRoIkNP3I8t9Dv-153" value="FlightSitID" style="shape=partialRectangle;html=1;whiteSpace=wrap;connectable=0;fillColor=#d5e8d4;top=0;left=0;bottom=0;right=0;align=left;spacingLeft=6;overflow=hidden;strokeColor=#82b366;fontSize=16;" parent="ydyuHpFRoIkNP3I8t9Dv-151" vertex="1">
          <mxGeometry x="120" width="160" height="40" as="geometry">
            <mxRectangle width="160" height="40" as="alternateBounds" />
          </mxGeometry>
        </mxCell>
        <mxCell id="ydyuHpFRoIkNP3I8t9Dv-154" value="" style="shape=tableRow;horizontal=0;startSize=0;swimlaneHead=0;swimlaneBody=0;top=0;left=0;bottom=0;right=0;collapsible=0;dropTarget=0;fillColor=none;points=[[0,0.5],[1,0.5]];portConstraint=eastwest;strokeColor=inherit;fontSize=16;" parent="ydyuHpFRoIkNP3I8t9Dv-147" vertex="1">
          <mxGeometry y="100" width="280" height="30" as="geometry" />
        </mxCell>
        <mxCell id="ydyuHpFRoIkNP3I8t9Dv-155" value="varchar(8)" style="shape=partialRectangle;html=1;whiteSpace=wrap;connectable=0;fillColor=none;top=0;left=0;bottom=0;right=0;overflow=hidden;strokeColor=inherit;fontSize=16;" parent="ydyuHpFRoIkNP3I8t9Dv-154" vertex="1">
          <mxGeometry width="120" height="30" as="geometry">
            <mxRectangle width="120" height="30" as="alternateBounds" />
          </mxGeometry>
        </mxCell>
        <mxCell id="ydyuHpFRoIkNP3I8t9Dv-156" value="AirplaneID" style="shape=partialRectangle;html=1;whiteSpace=wrap;connectable=0;fillColor=#d5e8d4;top=0;left=0;bottom=0;right=0;align=left;spacingLeft=6;overflow=hidden;strokeColor=#82b366;fontSize=16;" parent="ydyuHpFRoIkNP3I8t9Dv-154" vertex="1">
          <mxGeometry x="120" width="160" height="30" as="geometry">
            <mxRectangle width="160" height="30" as="alternateBounds" />
          </mxGeometry>
        </mxCell>
        <mxCell id="ydyuHpFRoIkNP3I8t9Dv-157" value="" style="shape=tableRow;horizontal=0;startSize=0;swimlaneHead=0;swimlaneBody=0;top=0;left=0;bottom=0;right=0;collapsible=0;dropTarget=0;fillColor=none;points=[[0,0.5],[1,0.5]];portConstraint=eastwest;strokeColor=inherit;fontSize=16;" parent="ydyuHpFRoIkNP3I8t9Dv-147" vertex="1">
          <mxGeometry y="130" width="280" height="30" as="geometry" />
        </mxCell>
        <mxCell id="ydyuHpFRoIkNP3I8t9Dv-158" value="varchar(3)" style="shape=partialRectangle;html=1;whiteSpace=wrap;connectable=0;fillColor=none;top=0;left=0;bottom=0;right=0;overflow=hidden;strokeColor=inherit;fontSize=16;" parent="ydyuHpFRoIkNP3I8t9Dv-157" vertex="1">
          <mxGeometry width="120" height="30" as="geometry">
            <mxRectangle width="120" height="30" as="alternateBounds" />
          </mxGeometry>
        </mxCell>
        <mxCell id="ydyuHpFRoIkNP3I8t9Dv-159" value="ArrAir_Code" style="shape=partialRectangle;html=1;whiteSpace=wrap;connectable=0;fillColor=#d5e8d4;top=0;left=0;bottom=0;right=0;align=left;spacingLeft=6;overflow=hidden;strokeColor=#82b366;fontSize=16;" parent="ydyuHpFRoIkNP3I8t9Dv-157" vertex="1">
          <mxGeometry x="120" width="160" height="30" as="geometry">
            <mxRectangle width="160" height="30" as="alternateBounds" />
          </mxGeometry>
        </mxCell>
        <mxCell id="ydyuHpFRoIkNP3I8t9Dv-160" value="" style="shape=tableRow;horizontal=0;startSize=0;swimlaneHead=0;swimlaneBody=0;top=0;left=0;bottom=0;right=0;collapsible=0;dropTarget=0;fillColor=none;points=[[0,0.5],[1,0.5]];portConstraint=eastwest;strokeColor=inherit;fontSize=16;" parent="ydyuHpFRoIkNP3I8t9Dv-147" vertex="1">
          <mxGeometry y="160" width="280" height="30" as="geometry" />
        </mxCell>
        <mxCell id="ydyuHpFRoIkNP3I8t9Dv-161" value="varchar(3)" style="shape=partialRectangle;html=1;whiteSpace=wrap;connectable=0;fillColor=none;top=0;left=0;bottom=0;right=0;overflow=hidden;strokeColor=inherit;fontSize=16;" parent="ydyuHpFRoIkNP3I8t9Dv-160" vertex="1">
          <mxGeometry width="120" height="30" as="geometry">
            <mxRectangle width="120" height="30" as="alternateBounds" />
          </mxGeometry>
        </mxCell>
        <mxCell id="ydyuHpFRoIkNP3I8t9Dv-162" value="DeptAir_Code" style="shape=partialRectangle;html=1;whiteSpace=wrap;connectable=0;fillColor=#d5e8d4;top=0;left=0;bottom=0;right=0;align=left;spacingLeft=6;overflow=hidden;strokeColor=#82b366;fontSize=16;" parent="ydyuHpFRoIkNP3I8t9Dv-160" vertex="1">
          <mxGeometry x="120" width="160" height="30" as="geometry">
            <mxRectangle width="160" height="30" as="alternateBounds" />
          </mxGeometry>
        </mxCell>
        <mxCell id="ydyuHpFRoIkNP3I8t9Dv-163" value="Seat" style="shape=table;startSize=30;container=1;collapsible=0;childLayout=tableLayout;fixedRows=1;rowLines=0;fontStyle=0;strokeColor=default;fontSize=16;" parent="1" vertex="1">
          <mxGeometry x="1400" y="1080" width="280" height="210" as="geometry" />
        </mxCell>
        <mxCell id="ydyuHpFRoIkNP3I8t9Dv-164" value="" style="shape=tableRow;horizontal=0;startSize=0;swimlaneHead=0;swimlaneBody=0;top=0;left=0;bottom=0;right=0;collapsible=0;dropTarget=0;fillColor=none;points=[[0,0.5],[1,0.5]];portConstraint=eastwest;strokeColor=inherit;fontSize=16;" parent="ydyuHpFRoIkNP3I8t9Dv-163" vertex="1">
          <mxGeometry y="30" width="280" height="30" as="geometry" />
        </mxCell>
        <mxCell id="ydyuHpFRoIkNP3I8t9Dv-165" value="int" style="shape=partialRectangle;html=1;whiteSpace=wrap;connectable=0;fillColor=none;top=0;left=0;bottom=0;right=0;overflow=hidden;pointerEvents=1;strokeColor=inherit;fontSize=16;" parent="ydyuHpFRoIkNP3I8t9Dv-164" vertex="1">
          <mxGeometry width="140" height="30" as="geometry">
            <mxRectangle width="140" height="30" as="alternateBounds" />
          </mxGeometry>
        </mxCell>
        <mxCell id="ydyuHpFRoIkNP3I8t9Dv-166" value="SeatID" style="shape=partialRectangle;html=1;whiteSpace=wrap;connectable=0;fillColor=#f8cecc;top=0;left=0;bottom=0;right=0;align=left;spacingLeft=6;overflow=hidden;strokeColor=#b85450;fontSize=16;" parent="ydyuHpFRoIkNP3I8t9Dv-164" vertex="1">
          <mxGeometry x="140" width="140" height="30" as="geometry">
            <mxRectangle width="140" height="30" as="alternateBounds" />
          </mxGeometry>
        </mxCell>
        <mxCell id="ydyuHpFRoIkNP3I8t9Dv-167" value="" style="shape=tableRow;horizontal=0;startSize=0;swimlaneHead=0;swimlaneBody=0;top=0;left=0;bottom=0;right=0;collapsible=0;dropTarget=0;fillColor=none;points=[[0,0.5],[1,0.5]];portConstraint=eastwest;strokeColor=inherit;fontSize=16;" parent="ydyuHpFRoIkNP3I8t9Dv-163" vertex="1">
          <mxGeometry y="60" width="280" height="30" as="geometry" />
        </mxCell>
        <mxCell id="ydyuHpFRoIkNP3I8t9Dv-168" value="varchar(8)" style="shape=partialRectangle;html=1;whiteSpace=wrap;connectable=0;fillColor=none;top=0;left=0;bottom=0;right=0;overflow=hidden;strokeColor=inherit;fontSize=16;" parent="ydyuHpFRoIkNP3I8t9Dv-167" vertex="1">
          <mxGeometry width="140" height="30" as="geometry">
            <mxRectangle width="140" height="30" as="alternateBounds" />
          </mxGeometry>
        </mxCell>
        <mxCell id="ydyuHpFRoIkNP3I8t9Dv-169" value="FlightID" style="shape=partialRectangle;html=1;whiteSpace=wrap;connectable=0;fillColor=#d5e8d4;top=0;left=0;bottom=0;right=0;align=left;spacingLeft=6;overflow=hidden;strokeColor=#82b366;fontSize=16;" parent="ydyuHpFRoIkNP3I8t9Dv-167" vertex="1">
          <mxGeometry x="140" width="140" height="30" as="geometry">
            <mxRectangle width="140" height="30" as="alternateBounds" />
          </mxGeometry>
        </mxCell>
        <mxCell id="ydyuHpFRoIkNP3I8t9Dv-170" value="" style="shape=tableRow;horizontal=0;startSize=0;swimlaneHead=0;swimlaneBody=0;top=0;left=0;bottom=0;right=0;collapsible=0;dropTarget=0;fillColor=none;points=[[0,0.5],[1,0.5]];portConstraint=eastwest;strokeColor=inherit;fontSize=16;" parent="ydyuHpFRoIkNP3I8t9Dv-163" vertex="1">
          <mxGeometry y="90" width="280" height="30" as="geometry" />
        </mxCell>
        <mxCell id="ydyuHpFRoIkNP3I8t9Dv-171" value="varchar(15)" style="shape=partialRectangle;html=1;whiteSpace=wrap;connectable=0;fillColor=none;top=0;left=0;bottom=0;right=0;overflow=hidden;strokeColor=inherit;fontSize=16;" parent="ydyuHpFRoIkNP3I8t9Dv-170" vertex="1">
          <mxGeometry width="140" height="30" as="geometry">
            <mxRectangle width="140" height="30" as="alternateBounds" />
          </mxGeometry>
        </mxCell>
        <mxCell id="ydyuHpFRoIkNP3I8t9Dv-172" value="AvailabilityS" style="shape=partialRectangle;html=1;whiteSpace=wrap;connectable=0;fillColor=none;top=0;left=0;bottom=0;right=0;align=left;spacingLeft=6;overflow=hidden;strokeColor=inherit;fontSize=16;" parent="ydyuHpFRoIkNP3I8t9Dv-170" vertex="1">
          <mxGeometry x="140" width="140" height="30" as="geometry">
            <mxRectangle width="140" height="30" as="alternateBounds" />
          </mxGeometry>
        </mxCell>
        <mxCell id="ydyuHpFRoIkNP3I8t9Dv-173" value="" style="shape=tableRow;horizontal=0;startSize=0;swimlaneHead=0;swimlaneBody=0;top=0;left=0;bottom=0;right=0;collapsible=0;dropTarget=0;fillColor=none;points=[[0,0.5],[1,0.5]];portConstraint=eastwest;strokeColor=inherit;fontSize=16;" parent="ydyuHpFRoIkNP3I8t9Dv-163" vertex="1">
          <mxGeometry y="120" width="280" height="30" as="geometry" />
        </mxCell>
        <mxCell id="ydyuHpFRoIkNP3I8t9Dv-174" value="varchar(15)" style="shape=partialRectangle;html=1;whiteSpace=wrap;connectable=0;fillColor=none;top=0;left=0;bottom=0;right=0;overflow=hidden;strokeColor=inherit;fontSize=16;" parent="ydyuHpFRoIkNP3I8t9Dv-173" vertex="1">
          <mxGeometry width="140" height="30" as="geometry">
            <mxRectangle width="140" height="30" as="alternateBounds" />
          </mxGeometry>
        </mxCell>
        <mxCell id="ydyuHpFRoIkNP3I8t9Dv-175" value="Seat_Class" style="shape=partialRectangle;html=1;whiteSpace=wrap;connectable=0;fillColor=none;top=0;left=0;bottom=0;right=0;align=left;spacingLeft=6;overflow=hidden;strokeColor=inherit;fontSize=16;" parent="ydyuHpFRoIkNP3I8t9Dv-173" vertex="1">
          <mxGeometry x="140" width="140" height="30" as="geometry">
            <mxRectangle width="140" height="30" as="alternateBounds" />
          </mxGeometry>
        </mxCell>
        <mxCell id="ydyuHpFRoIkNP3I8t9Dv-176" value="" style="shape=tableRow;horizontal=0;startSize=0;swimlaneHead=0;swimlaneBody=0;top=0;left=0;bottom=0;right=0;collapsible=0;dropTarget=0;fillColor=none;points=[[0,0.5],[1,0.5]];portConstraint=eastwest;strokeColor=inherit;fontSize=16;" parent="ydyuHpFRoIkNP3I8t9Dv-163" vertex="1">
          <mxGeometry y="150" width="280" height="30" as="geometry" />
        </mxCell>
        <mxCell id="ydyuHpFRoIkNP3I8t9Dv-177" value="varchar(6)" style="shape=partialRectangle;html=1;whiteSpace=wrap;connectable=0;fillColor=none;top=0;left=0;bottom=0;right=0;overflow=hidden;strokeColor=inherit;fontSize=16;" parent="ydyuHpFRoIkNP3I8t9Dv-176" vertex="1">
          <mxGeometry width="140" height="30" as="geometry">
            <mxRectangle width="140" height="30" as="alternateBounds" />
          </mxGeometry>
        </mxCell>
        <mxCell id="ydyuHpFRoIkNP3I8t9Dv-178" value="SeatNumber" style="shape=partialRectangle;html=1;whiteSpace=wrap;connectable=0;fillColor=none;top=0;left=0;bottom=0;right=0;align=left;spacingLeft=6;overflow=hidden;strokeColor=inherit;fontSize=16;" parent="ydyuHpFRoIkNP3I8t9Dv-176" vertex="1">
          <mxGeometry x="140" width="140" height="30" as="geometry">
            <mxRectangle width="140" height="30" as="alternateBounds" />
          </mxGeometry>
        </mxCell>
        <mxCell id="ydyuHpFRoIkNP3I8t9Dv-179" value="" style="shape=tableRow;horizontal=0;startSize=0;swimlaneHead=0;swimlaneBody=0;top=0;left=0;bottom=0;right=0;collapsible=0;dropTarget=0;fillColor=none;points=[[0,0.5],[1,0.5]];portConstraint=eastwest;strokeColor=inherit;fontSize=16;" parent="ydyuHpFRoIkNP3I8t9Dv-163" vertex="1">
          <mxGeometry y="180" width="280" height="30" as="geometry" />
        </mxCell>
        <mxCell id="ydyuHpFRoIkNP3I8t9Dv-180" value="int" style="shape=partialRectangle;html=1;whiteSpace=wrap;connectable=0;fillColor=none;top=0;left=0;bottom=0;right=0;overflow=hidden;strokeColor=inherit;fontSize=16;" parent="ydyuHpFRoIkNP3I8t9Dv-179" vertex="1">
          <mxGeometry width="140" height="30" as="geometry">
            <mxRectangle width="140" height="30" as="alternateBounds" />
          </mxGeometry>
        </mxCell>
        <mxCell id="ydyuHpFRoIkNP3I8t9Dv-181" value="Price" style="shape=partialRectangle;html=1;whiteSpace=wrap;connectable=0;fillColor=none;top=0;left=0;bottom=0;right=0;align=left;spacingLeft=6;overflow=hidden;strokeColor=inherit;fontSize=16;" parent="ydyuHpFRoIkNP3I8t9Dv-179" vertex="1">
          <mxGeometry x="140" width="140" height="30" as="geometry">
            <mxRectangle width="140" height="30" as="alternateBounds" />
          </mxGeometry>
        </mxCell>
        <mxCell id="ydyuHpFRoIkNP3I8t9Dv-182" value="FlightSituation" style="shape=table;startSize=30;container=1;collapsible=0;childLayout=tableLayout;fixedRows=1;rowLines=0;fontStyle=0;strokeColor=default;fontSize=16;" parent="1" vertex="1">
          <mxGeometry x="1800" y="530" width="280" height="90" as="geometry" />
        </mxCell>
        <mxCell id="ydyuHpFRoIkNP3I8t9Dv-183" value="" style="shape=tableRow;horizontal=0;startSize=0;swimlaneHead=0;swimlaneBody=0;top=0;left=0;bottom=0;right=0;collapsible=0;dropTarget=0;fillColor=none;points=[[0,0.5],[1,0.5]];portConstraint=eastwest;strokeColor=inherit;fontSize=16;" parent="ydyuHpFRoIkNP3I8t9Dv-182" vertex="1">
          <mxGeometry y="30" width="280" height="30" as="geometry" />
        </mxCell>
        <mxCell id="ydyuHpFRoIkNP3I8t9Dv-184" value="int" style="shape=partialRectangle;html=1;whiteSpace=wrap;connectable=0;fillColor=none;top=0;left=0;bottom=0;right=0;overflow=hidden;pointerEvents=1;strokeColor=inherit;fontSize=16;" parent="ydyuHpFRoIkNP3I8t9Dv-183" vertex="1">
          <mxGeometry width="103" height="30" as="geometry">
            <mxRectangle width="103" height="30" as="alternateBounds" />
          </mxGeometry>
        </mxCell>
        <mxCell id="ydyuHpFRoIkNP3I8t9Dv-185" value="FlightSitID" style="shape=partialRectangle;html=1;whiteSpace=wrap;connectable=0;fillColor=#f8cecc;top=0;left=0;bottom=0;right=0;align=left;spacingLeft=6;overflow=hidden;strokeColor=#b85450;fontSize=16;" parent="ydyuHpFRoIkNP3I8t9Dv-183" vertex="1">
          <mxGeometry x="103" width="177" height="30" as="geometry">
            <mxRectangle width="177" height="30" as="alternateBounds" />
          </mxGeometry>
        </mxCell>
        <mxCell id="ydyuHpFRoIkNP3I8t9Dv-186" value="" style="shape=tableRow;horizontal=0;startSize=0;swimlaneHead=0;swimlaneBody=0;top=0;left=0;bottom=0;right=0;collapsible=0;dropTarget=0;fillColor=none;points=[[0,0.5],[1,0.5]];portConstraint=eastwest;strokeColor=inherit;fontSize=16;" parent="ydyuHpFRoIkNP3I8t9Dv-182" vertex="1">
          <mxGeometry y="60" width="280" height="30" as="geometry" />
        </mxCell>
        <mxCell id="ydyuHpFRoIkNP3I8t9Dv-187" value="varchar(15)" style="shape=partialRectangle;html=1;whiteSpace=wrap;connectable=0;fillColor=none;top=0;left=0;bottom=0;right=0;overflow=hidden;strokeColor=inherit;fontSize=16;" parent="ydyuHpFRoIkNP3I8t9Dv-186" vertex="1">
          <mxGeometry width="103" height="30" as="geometry">
            <mxRectangle width="103" height="30" as="alternateBounds" />
          </mxGeometry>
        </mxCell>
        <mxCell id="ydyuHpFRoIkNP3I8t9Dv-188" value="Situation" style="shape=partialRectangle;html=1;whiteSpace=wrap;connectable=0;fillColor=none;top=0;left=0;bottom=0;right=0;align=left;spacingLeft=6;overflow=hidden;strokeColor=inherit;fontSize=16;" parent="ydyuHpFRoIkNP3I8t9Dv-186" vertex="1">
          <mxGeometry x="103" width="177" height="30" as="geometry">
            <mxRectangle width="177" height="30" as="alternateBounds" />
          </mxGeometry>
        </mxCell>
        <mxCell id="ydyuHpFRoIkNP3I8t9Dv-192" value="Airplane" style="shape=table;startSize=30;container=1;collapsible=0;childLayout=tableLayout;fixedRows=1;rowLines=0;fontStyle=0;strokeColor=default;fontSize=16;" parent="1" vertex="1">
          <mxGeometry x="1900" y="710" width="240" height="120" as="geometry" />
        </mxCell>
        <mxCell id="ydyuHpFRoIkNP3I8t9Dv-193" value="" style="shape=tableRow;horizontal=0;startSize=0;swimlaneHead=0;swimlaneBody=0;top=0;left=0;bottom=0;right=0;collapsible=0;dropTarget=0;fillColor=none;points=[[0,0.5],[1,0.5]];portConstraint=eastwest;strokeColor=inherit;fontSize=16;" parent="ydyuHpFRoIkNP3I8t9Dv-192" vertex="1">
          <mxGeometry y="30" width="240" height="30" as="geometry" />
        </mxCell>
        <mxCell id="ydyuHpFRoIkNP3I8t9Dv-194" value="varchar(8)" style="shape=partialRectangle;html=1;whiteSpace=wrap;connectable=0;fillColor=none;top=0;left=0;bottom=0;right=0;overflow=hidden;pointerEvents=1;strokeColor=inherit;fontSize=16;" parent="ydyuHpFRoIkNP3I8t9Dv-193" vertex="1">
          <mxGeometry width="93" height="30" as="geometry">
            <mxRectangle width="93" height="30" as="alternateBounds" />
          </mxGeometry>
        </mxCell>
        <mxCell id="ydyuHpFRoIkNP3I8t9Dv-195" value="AirplaneID" style="shape=partialRectangle;html=1;whiteSpace=wrap;connectable=0;fillColor=#f8cecc;top=0;left=0;bottom=0;right=0;align=left;spacingLeft=6;overflow=hidden;strokeColor=#b85450;fontSize=16;" parent="ydyuHpFRoIkNP3I8t9Dv-193" vertex="1">
          <mxGeometry x="93" width="147" height="30" as="geometry">
            <mxRectangle width="147" height="30" as="alternateBounds" />
          </mxGeometry>
        </mxCell>
        <mxCell id="ydyuHpFRoIkNP3I8t9Dv-196" value="" style="shape=tableRow;horizontal=0;startSize=0;swimlaneHead=0;swimlaneBody=0;top=0;left=0;bottom=0;right=0;collapsible=0;dropTarget=0;fillColor=none;points=[[0,0.5],[1,0.5]];portConstraint=eastwest;strokeColor=inherit;fontSize=16;" parent="ydyuHpFRoIkNP3I8t9Dv-192" vertex="1">
          <mxGeometry y="60" width="240" height="30" as="geometry" />
        </mxCell>
        <mxCell id="ydyuHpFRoIkNP3I8t9Dv-197" value="varchar(5)" style="shape=partialRectangle;html=1;whiteSpace=wrap;connectable=0;fillColor=none;top=0;left=0;bottom=0;right=0;overflow=hidden;strokeColor=inherit;fontSize=16;" parent="ydyuHpFRoIkNP3I8t9Dv-196" vertex="1">
          <mxGeometry width="93" height="30" as="geometry">
            <mxRectangle width="93" height="30" as="alternateBounds" />
          </mxGeometry>
        </mxCell>
        <mxCell id="ydyuHpFRoIkNP3I8t9Dv-198" value="AirlineID" style="shape=partialRectangle;html=1;whiteSpace=wrap;connectable=0;fillColor=#d5e8d4;top=0;left=0;bottom=0;right=0;align=left;spacingLeft=6;overflow=hidden;strokeColor=#82b366;fontSize=16;" parent="ydyuHpFRoIkNP3I8t9Dv-196" vertex="1">
          <mxGeometry x="93" width="147" height="30" as="geometry">
            <mxRectangle width="147" height="30" as="alternateBounds" />
          </mxGeometry>
        </mxCell>
        <mxCell id="ydyuHpFRoIkNP3I8t9Dv-199" value="" style="shape=tableRow;horizontal=0;startSize=0;swimlaneHead=0;swimlaneBody=0;top=0;left=0;bottom=0;right=0;collapsible=0;dropTarget=0;fillColor=none;points=[[0,0.5],[1,0.5]];portConstraint=eastwest;strokeColor=inherit;fontSize=16;" parent="ydyuHpFRoIkNP3I8t9Dv-192" vertex="1">
          <mxGeometry y="90" width="240" height="30" as="geometry" />
        </mxCell>
        <mxCell id="ydyuHpFRoIkNP3I8t9Dv-200" value="varchar(25)" style="shape=partialRectangle;html=1;whiteSpace=wrap;connectable=0;fillColor=none;top=0;left=0;bottom=0;right=0;overflow=hidden;strokeColor=inherit;fontSize=16;" parent="ydyuHpFRoIkNP3I8t9Dv-199" vertex="1">
          <mxGeometry width="93" height="30" as="geometry">
            <mxRectangle width="93" height="30" as="alternateBounds" />
          </mxGeometry>
        </mxCell>
        <mxCell id="ydyuHpFRoIkNP3I8t9Dv-201" value="Model" style="shape=partialRectangle;html=1;whiteSpace=wrap;connectable=0;fillColor=none;top=0;left=0;bottom=0;right=0;align=left;spacingLeft=6;overflow=hidden;strokeColor=inherit;fontSize=16;" parent="ydyuHpFRoIkNP3I8t9Dv-199" vertex="1">
          <mxGeometry x="93" width="147" height="30" as="geometry">
            <mxRectangle width="147" height="30" as="alternateBounds" />
          </mxGeometry>
        </mxCell>
        <mxCell id="ydyuHpFRoIkNP3I8t9Dv-202" value="Airport" style="shape=table;startSize=30;container=1;collapsible=0;childLayout=tableLayout;fixedRows=1;rowLines=0;fontStyle=0;strokeColor=default;fontSize=16;" parent="1" vertex="1">
          <mxGeometry x="1915" y="1010" width="260" height="150" as="geometry" />
        </mxCell>
        <mxCell id="ydyuHpFRoIkNP3I8t9Dv-203" value="" style="shape=tableRow;horizontal=0;startSize=0;swimlaneHead=0;swimlaneBody=0;top=0;left=0;bottom=0;right=0;collapsible=0;dropTarget=0;fillColor=none;points=[[0,0.5],[1,0.5]];portConstraint=eastwest;strokeColor=inherit;fontSize=16;" parent="ydyuHpFRoIkNP3I8t9Dv-202" vertex="1">
          <mxGeometry y="30" width="260" height="30" as="geometry" />
        </mxCell>
        <mxCell id="ydyuHpFRoIkNP3I8t9Dv-204" value="varchar(3)" style="shape=partialRectangle;html=1;whiteSpace=wrap;connectable=0;fillColor=none;top=0;left=0;bottom=0;right=0;overflow=hidden;pointerEvents=1;strokeColor=inherit;fontSize=16;" parent="ydyuHpFRoIkNP3I8t9Dv-203" vertex="1">
          <mxGeometry width="110" height="30" as="geometry">
            <mxRectangle width="110" height="30" as="alternateBounds" />
          </mxGeometry>
        </mxCell>
        <mxCell id="ydyuHpFRoIkNP3I8t9Dv-205" value="AirportCode" style="shape=partialRectangle;html=1;whiteSpace=wrap;connectable=0;fillColor=#f8cecc;top=0;left=0;bottom=0;right=0;align=left;spacingLeft=6;overflow=hidden;strokeColor=#b85450;fontSize=16;" parent="ydyuHpFRoIkNP3I8t9Dv-203" vertex="1">
          <mxGeometry x="110" width="150" height="30" as="geometry">
            <mxRectangle width="150" height="30" as="alternateBounds" />
          </mxGeometry>
        </mxCell>
        <mxCell id="ydyuHpFRoIkNP3I8t9Dv-206" value="" style="shape=tableRow;horizontal=0;startSize=0;swimlaneHead=0;swimlaneBody=0;top=0;left=0;bottom=0;right=0;collapsible=0;dropTarget=0;fillColor=none;points=[[0,0.5],[1,0.5]];portConstraint=eastwest;strokeColor=inherit;fontSize=16;" parent="ydyuHpFRoIkNP3I8t9Dv-202" vertex="1">
          <mxGeometry y="60" width="260" height="30" as="geometry" />
        </mxCell>
        <mxCell id="ydyuHpFRoIkNP3I8t9Dv-207" value="varchar(45)" style="shape=partialRectangle;html=1;whiteSpace=wrap;connectable=0;fillColor=none;top=0;left=0;bottom=0;right=0;overflow=hidden;strokeColor=inherit;fontSize=16;" parent="ydyuHpFRoIkNP3I8t9Dv-206" vertex="1">
          <mxGeometry width="110" height="30" as="geometry">
            <mxRectangle width="110" height="30" as="alternateBounds" />
          </mxGeometry>
        </mxCell>
        <mxCell id="ydyuHpFRoIkNP3I8t9Dv-208" value="Airport_Name" style="shape=partialRectangle;html=1;whiteSpace=wrap;connectable=0;fillColor=none;top=0;left=0;bottom=0;right=0;align=left;spacingLeft=6;overflow=hidden;strokeColor=inherit;fontSize=16;" parent="ydyuHpFRoIkNP3I8t9Dv-206" vertex="1">
          <mxGeometry x="110" width="150" height="30" as="geometry">
            <mxRectangle width="150" height="30" as="alternateBounds" />
          </mxGeometry>
        </mxCell>
        <mxCell id="ydyuHpFRoIkNP3I8t9Dv-209" value="" style="shape=tableRow;horizontal=0;startSize=0;swimlaneHead=0;swimlaneBody=0;top=0;left=0;bottom=0;right=0;collapsible=0;dropTarget=0;fillColor=none;points=[[0,0.5],[1,0.5]];portConstraint=eastwest;strokeColor=inherit;fontSize=16;" parent="ydyuHpFRoIkNP3I8t9Dv-202" vertex="1">
          <mxGeometry y="90" width="260" height="30" as="geometry" />
        </mxCell>
        <mxCell id="ydyuHpFRoIkNP3I8t9Dv-210" value="varchar(20)" style="shape=partialRectangle;html=1;whiteSpace=wrap;connectable=0;fillColor=none;top=0;left=0;bottom=0;right=0;overflow=hidden;strokeColor=inherit;fontSize=16;" parent="ydyuHpFRoIkNP3I8t9Dv-209" vertex="1">
          <mxGeometry width="110" height="30" as="geometry">
            <mxRectangle width="110" height="30" as="alternateBounds" />
          </mxGeometry>
        </mxCell>
        <mxCell id="ydyuHpFRoIkNP3I8t9Dv-211" value="City" style="shape=partialRectangle;html=1;whiteSpace=wrap;connectable=0;fillColor=none;top=0;left=0;bottom=0;right=0;align=left;spacingLeft=6;overflow=hidden;strokeColor=inherit;fontSize=16;" parent="ydyuHpFRoIkNP3I8t9Dv-209" vertex="1">
          <mxGeometry x="110" width="150" height="30" as="geometry">
            <mxRectangle width="150" height="30" as="alternateBounds" />
          </mxGeometry>
        </mxCell>
        <mxCell id="ydyuHpFRoIkNP3I8t9Dv-212" value="" style="shape=tableRow;horizontal=0;startSize=0;swimlaneHead=0;swimlaneBody=0;top=0;left=0;bottom=0;right=0;collapsible=0;dropTarget=0;fillColor=none;points=[[0,0.5],[1,0.5]];portConstraint=eastwest;strokeColor=inherit;fontSize=16;" parent="ydyuHpFRoIkNP3I8t9Dv-202" vertex="1">
          <mxGeometry y="120" width="260" height="30" as="geometry" />
        </mxCell>
        <mxCell id="ydyuHpFRoIkNP3I8t9Dv-213" value="varchar(20)" style="shape=partialRectangle;html=1;whiteSpace=wrap;connectable=0;fillColor=none;top=0;left=0;bottom=0;right=0;overflow=hidden;strokeColor=inherit;fontSize=16;" parent="ydyuHpFRoIkNP3I8t9Dv-212" vertex="1">
          <mxGeometry width="110" height="30" as="geometry">
            <mxRectangle width="110" height="30" as="alternateBounds" />
          </mxGeometry>
        </mxCell>
        <mxCell id="ydyuHpFRoIkNP3I8t9Dv-214" value="Country" style="shape=partialRectangle;html=1;whiteSpace=wrap;connectable=0;fillColor=none;top=0;left=0;bottom=0;right=0;align=left;spacingLeft=6;overflow=hidden;strokeColor=inherit;fontSize=16;" parent="ydyuHpFRoIkNP3I8t9Dv-212" vertex="1">
          <mxGeometry x="110" width="150" height="30" as="geometry">
            <mxRectangle width="150" height="30" as="alternateBounds" />
          </mxGeometry>
        </mxCell>
        <mxCell id="ydyuHpFRoIkNP3I8t9Dv-215" value="Airline" style="shape=table;startSize=30;container=1;collapsible=0;childLayout=tableLayout;fixedRows=1;rowLines=0;fontStyle=0;strokeColor=default;fontSize=16;" parent="1" vertex="1">
          <mxGeometry x="2220" y="855" width="240" height="120" as="geometry" />
        </mxCell>
        <mxCell id="ydyuHpFRoIkNP3I8t9Dv-216" value="" style="shape=tableRow;horizontal=0;startSize=0;swimlaneHead=0;swimlaneBody=0;top=0;left=0;bottom=0;right=0;collapsible=0;dropTarget=0;fillColor=none;points=[[0,0.5],[1,0.5]];portConstraint=eastwest;strokeColor=inherit;fontSize=16;" parent="ydyuHpFRoIkNP3I8t9Dv-215" vertex="1">
          <mxGeometry y="30" width="240" height="30" as="geometry" />
        </mxCell>
        <mxCell id="ydyuHpFRoIkNP3I8t9Dv-217" value="varchar(5)" style="shape=partialRectangle;html=1;whiteSpace=wrap;connectable=0;fillColor=none;top=0;left=0;bottom=0;right=0;overflow=hidden;pointerEvents=1;strokeColor=inherit;fontSize=16;" parent="ydyuHpFRoIkNP3I8t9Dv-216" vertex="1">
          <mxGeometry width="77" height="30" as="geometry">
            <mxRectangle width="77" height="30" as="alternateBounds" />
          </mxGeometry>
        </mxCell>
        <mxCell id="ydyuHpFRoIkNP3I8t9Dv-218" value="AirlineID" style="shape=partialRectangle;html=1;whiteSpace=wrap;connectable=0;fillColor=#f8cecc;top=0;left=0;bottom=0;right=0;align=left;spacingLeft=6;overflow=hidden;strokeColor=#b85450;fontSize=16;" parent="ydyuHpFRoIkNP3I8t9Dv-216" vertex="1">
          <mxGeometry x="77" width="163" height="30" as="geometry">
            <mxRectangle width="163" height="30" as="alternateBounds" />
          </mxGeometry>
        </mxCell>
        <mxCell id="ydyuHpFRoIkNP3I8t9Dv-219" value="" style="shape=tableRow;horizontal=0;startSize=0;swimlaneHead=0;swimlaneBody=0;top=0;left=0;bottom=0;right=0;collapsible=0;dropTarget=0;fillColor=none;points=[[0,0.5],[1,0.5]];portConstraint=eastwest;strokeColor=inherit;fontSize=16;" parent="ydyuHpFRoIkNP3I8t9Dv-215" vertex="1">
          <mxGeometry y="60" width="240" height="30" as="geometry" />
        </mxCell>
        <mxCell id="ydyuHpFRoIkNP3I8t9Dv-220" value="varchar(25)" style="shape=partialRectangle;html=1;whiteSpace=wrap;connectable=0;fillColor=none;top=0;left=0;bottom=0;right=0;overflow=hidden;strokeColor=inherit;fontSize=16;" parent="ydyuHpFRoIkNP3I8t9Dv-219" vertex="1">
          <mxGeometry width="77" height="30" as="geometry">
            <mxRectangle width="77" height="30" as="alternateBounds" />
          </mxGeometry>
        </mxCell>
        <mxCell id="ydyuHpFRoIkNP3I8t9Dv-221" value="Airline_Name" style="shape=partialRectangle;html=1;whiteSpace=wrap;connectable=0;fillColor=none;top=0;left=0;bottom=0;right=0;align=left;spacingLeft=6;overflow=hidden;strokeColor=inherit;fontSize=16;" parent="ydyuHpFRoIkNP3I8t9Dv-219" vertex="1">
          <mxGeometry x="77" width="163" height="30" as="geometry">
            <mxRectangle width="163" height="30" as="alternateBounds" />
          </mxGeometry>
        </mxCell>
        <mxCell id="ydyuHpFRoIkNP3I8t9Dv-222" value="" style="shape=tableRow;horizontal=0;startSize=0;swimlaneHead=0;swimlaneBody=0;top=0;left=0;bottom=0;right=0;collapsible=0;dropTarget=0;fillColor=none;points=[[0,0.5],[1,0.5]];portConstraint=eastwest;strokeColor=inherit;fontSize=16;" parent="ydyuHpFRoIkNP3I8t9Dv-215" vertex="1">
          <mxGeometry y="90" width="240" height="30" as="geometry" />
        </mxCell>
        <mxCell id="ydyuHpFRoIkNP3I8t9Dv-223" value="char(11)" style="shape=partialRectangle;html=1;whiteSpace=wrap;connectable=0;fillColor=none;top=0;left=0;bottom=0;right=0;overflow=hidden;strokeColor=inherit;fontSize=16;" parent="ydyuHpFRoIkNP3I8t9Dv-222" vertex="1">
          <mxGeometry width="77" height="30" as="geometry">
            <mxRectangle width="77" height="30" as="alternateBounds" />
          </mxGeometry>
        </mxCell>
        <mxCell id="ydyuHpFRoIkNP3I8t9Dv-224" value="Contact_Number" style="shape=partialRectangle;html=1;whiteSpace=wrap;connectable=0;fillColor=none;top=0;left=0;bottom=0;right=0;align=left;spacingLeft=6;overflow=hidden;strokeColor=inherit;fontSize=16;" parent="ydyuHpFRoIkNP3I8t9Dv-222" vertex="1">
          <mxGeometry x="77" width="163" height="30" as="geometry">
            <mxRectangle width="163" height="30" as="alternateBounds" />
          </mxGeometry>
        </mxCell>
        <mxCell id="ydyuHpFRoIkNP3I8t9Dv-225" value="Movement" style="shape=table;startSize=30;container=1;collapsible=0;childLayout=tableLayout;fixedRows=1;rowLines=0;fontStyle=0;strokeColor=default;fontSize=16;" parent="1" vertex="1">
          <mxGeometry x="1990" y="290" width="290" height="210" as="geometry" />
        </mxCell>
        <mxCell id="ydyuHpFRoIkNP3I8t9Dv-226" value="" style="shape=tableRow;horizontal=0;startSize=0;swimlaneHead=0;swimlaneBody=0;top=0;left=0;bottom=0;right=0;collapsible=0;dropTarget=0;fillColor=none;points=[[0,0.5],[1,0.5]];portConstraint=eastwest;strokeColor=inherit;fontSize=16;" parent="ydyuHpFRoIkNP3I8t9Dv-225" vertex="1">
          <mxGeometry y="30" width="290" height="30" as="geometry" />
        </mxCell>
        <mxCell id="ydyuHpFRoIkNP3I8t9Dv-227" value="varchar(6)" style="shape=partialRectangle;html=1;whiteSpace=wrap;connectable=0;fillColor=none;top=0;left=0;bottom=0;right=0;overflow=hidden;pointerEvents=1;strokeColor=inherit;fontSize=16;" parent="ydyuHpFRoIkNP3I8t9Dv-226" vertex="1">
          <mxGeometry width="100" height="30" as="geometry">
            <mxRectangle width="100" height="30" as="alternateBounds" />
          </mxGeometry>
        </mxCell>
        <mxCell id="ydyuHpFRoIkNP3I8t9Dv-228" value="Movement_Code" style="shape=partialRectangle;html=1;whiteSpace=wrap;connectable=0;fillColor=#f8cecc;top=0;left=0;bottom=0;right=0;align=left;spacingLeft=6;overflow=hidden;strokeColor=#b85450;fontSize=16;" parent="ydyuHpFRoIkNP3I8t9Dv-226" vertex="1">
          <mxGeometry x="100" width="190" height="30" as="geometry">
            <mxRectangle width="190" height="30" as="alternateBounds" />
          </mxGeometry>
        </mxCell>
        <mxCell id="ydyuHpFRoIkNP3I8t9Dv-229" value="" style="shape=tableRow;horizontal=0;startSize=0;swimlaneHead=0;swimlaneBody=0;top=0;left=0;bottom=0;right=0;collapsible=0;dropTarget=0;fillColor=none;points=[[0,0.5],[1,0.5]];portConstraint=eastwest;strokeColor=inherit;fontSize=16;" parent="ydyuHpFRoIkNP3I8t9Dv-225" vertex="1">
          <mxGeometry y="60" width="290" height="30" as="geometry" />
        </mxCell>
        <mxCell id="ydyuHpFRoIkNP3I8t9Dv-230" value="varchar(8)" style="shape=partialRectangle;html=1;whiteSpace=wrap;connectable=0;fillColor=none;top=0;left=0;bottom=0;right=0;overflow=hidden;strokeColor=inherit;fontSize=16;" parent="ydyuHpFRoIkNP3I8t9Dv-229" vertex="1">
          <mxGeometry width="100" height="30" as="geometry">
            <mxRectangle width="100" height="30" as="alternateBounds" />
          </mxGeometry>
        </mxCell>
        <mxCell id="ydyuHpFRoIkNP3I8t9Dv-231" value="AirplaneID" style="shape=partialRectangle;html=1;whiteSpace=wrap;connectable=0;fillColor=#d5e8d4;top=0;left=0;bottom=0;right=0;align=left;spacingLeft=6;overflow=hidden;strokeColor=#82b366;fontSize=16;" parent="ydyuHpFRoIkNP3I8t9Dv-229" vertex="1">
          <mxGeometry x="100" width="190" height="30" as="geometry">
            <mxRectangle width="190" height="30" as="alternateBounds" />
          </mxGeometry>
        </mxCell>
        <mxCell id="ydyuHpFRoIkNP3I8t9Dv-232" value="" style="shape=tableRow;horizontal=0;startSize=0;swimlaneHead=0;swimlaneBody=0;top=0;left=0;bottom=0;right=0;collapsible=0;dropTarget=0;fillColor=none;points=[[0,0.5],[1,0.5]];portConstraint=eastwest;strokeColor=inherit;fontSize=16;" parent="ydyuHpFRoIkNP3I8t9Dv-225" vertex="1">
          <mxGeometry y="90" width="290" height="30" as="geometry" />
        </mxCell>
        <mxCell id="ydyuHpFRoIkNP3I8t9Dv-233" value="varchar(15)" style="shape=partialRectangle;html=1;whiteSpace=wrap;connectable=0;fillColor=none;top=0;left=0;bottom=0;right=0;overflow=hidden;strokeColor=inherit;fontSize=16;" parent="ydyuHpFRoIkNP3I8t9Dv-232" vertex="1">
          <mxGeometry width="100" height="30" as="geometry">
            <mxRectangle width="100" height="30" as="alternateBounds" />
          </mxGeometry>
        </mxCell>
        <mxCell id="ydyuHpFRoIkNP3I8t9Dv-234" value="Departure_Time" style="shape=partialRectangle;html=1;whiteSpace=wrap;connectable=0;fillColor=none;top=0;left=0;bottom=0;right=0;align=left;spacingLeft=6;overflow=hidden;strokeColor=inherit;fontSize=16;" parent="ydyuHpFRoIkNP3I8t9Dv-232" vertex="1">
          <mxGeometry x="100" width="190" height="30" as="geometry">
            <mxRectangle width="190" height="30" as="alternateBounds" />
          </mxGeometry>
        </mxCell>
        <mxCell id="ydyuHpFRoIkNP3I8t9Dv-235" value="" style="shape=tableRow;horizontal=0;startSize=0;swimlaneHead=0;swimlaneBody=0;top=0;left=0;bottom=0;right=0;collapsible=0;dropTarget=0;fillColor=none;points=[[0,0.5],[1,0.5]];portConstraint=eastwest;strokeColor=inherit;fontSize=16;" parent="ydyuHpFRoIkNP3I8t9Dv-225" vertex="1">
          <mxGeometry y="120" width="290" height="30" as="geometry" />
        </mxCell>
        <mxCell id="ydyuHpFRoIkNP3I8t9Dv-236" value="date" style="shape=partialRectangle;html=1;whiteSpace=wrap;connectable=0;fillColor=none;top=0;left=0;bottom=0;right=0;overflow=hidden;strokeColor=inherit;fontSize=16;" parent="ydyuHpFRoIkNP3I8t9Dv-235" vertex="1">
          <mxGeometry width="100" height="30" as="geometry">
            <mxRectangle width="100" height="30" as="alternateBounds" />
          </mxGeometry>
        </mxCell>
        <mxCell id="ydyuHpFRoIkNP3I8t9Dv-237" value="Departure_Date" style="shape=partialRectangle;html=1;whiteSpace=wrap;connectable=0;fillColor=none;top=0;left=0;bottom=0;right=0;align=left;spacingLeft=6;overflow=hidden;strokeColor=inherit;fontSize=16;" parent="ydyuHpFRoIkNP3I8t9Dv-235" vertex="1">
          <mxGeometry x="100" width="190" height="30" as="geometry">
            <mxRectangle width="190" height="30" as="alternateBounds" />
          </mxGeometry>
        </mxCell>
        <mxCell id="ydyuHpFRoIkNP3I8t9Dv-238" value="" style="shape=tableRow;horizontal=0;startSize=0;swimlaneHead=0;swimlaneBody=0;top=0;left=0;bottom=0;right=0;collapsible=0;dropTarget=0;fillColor=none;points=[[0,0.5],[1,0.5]];portConstraint=eastwest;strokeColor=inherit;fontSize=16;" parent="ydyuHpFRoIkNP3I8t9Dv-225" vertex="1">
          <mxGeometry y="150" width="290" height="30" as="geometry" />
        </mxCell>
        <mxCell id="ydyuHpFRoIkNP3I8t9Dv-239" value="varchar(15)" style="shape=partialRectangle;html=1;whiteSpace=wrap;connectable=0;fillColor=none;top=0;left=0;bottom=0;right=0;overflow=hidden;strokeColor=inherit;fontSize=16;" parent="ydyuHpFRoIkNP3I8t9Dv-238" vertex="1">
          <mxGeometry width="100" height="30" as="geometry">
            <mxRectangle width="100" height="30" as="alternateBounds" />
          </mxGeometry>
        </mxCell>
        <mxCell id="ydyuHpFRoIkNP3I8t9Dv-240" value="Arrival_Time" style="shape=partialRectangle;html=1;whiteSpace=wrap;connectable=0;fillColor=none;top=0;left=0;bottom=0;right=0;align=left;spacingLeft=6;overflow=hidden;strokeColor=inherit;fontSize=16;" parent="ydyuHpFRoIkNP3I8t9Dv-238" vertex="1">
          <mxGeometry x="100" width="190" height="30" as="geometry">
            <mxRectangle width="190" height="30" as="alternateBounds" />
          </mxGeometry>
        </mxCell>
        <mxCell id="ydyuHpFRoIkNP3I8t9Dv-241" value="" style="shape=tableRow;horizontal=0;startSize=0;swimlaneHead=0;swimlaneBody=0;top=0;left=0;bottom=0;right=0;collapsible=0;dropTarget=0;fillColor=none;points=[[0,0.5],[1,0.5]];portConstraint=eastwest;strokeColor=inherit;fontSize=16;" parent="ydyuHpFRoIkNP3I8t9Dv-225" vertex="1">
          <mxGeometry y="180" width="290" height="30" as="geometry" />
        </mxCell>
        <mxCell id="ydyuHpFRoIkNP3I8t9Dv-242" value="date" style="shape=partialRectangle;html=1;whiteSpace=wrap;connectable=0;fillColor=none;top=0;left=0;bottom=0;right=0;overflow=hidden;strokeColor=inherit;fontSize=16;" parent="ydyuHpFRoIkNP3I8t9Dv-241" vertex="1">
          <mxGeometry width="100" height="30" as="geometry">
            <mxRectangle width="100" height="30" as="alternateBounds" />
          </mxGeometry>
        </mxCell>
        <mxCell id="ydyuHpFRoIkNP3I8t9Dv-243" value="Arrival_Date" style="shape=partialRectangle;html=1;whiteSpace=wrap;connectable=0;fillColor=none;top=0;left=0;bottom=0;right=0;align=left;spacingLeft=6;overflow=hidden;strokeColor=inherit;fontSize=16;" parent="ydyuHpFRoIkNP3I8t9Dv-241" vertex="1">
          <mxGeometry x="100" width="190" height="30" as="geometry">
            <mxRectangle width="190" height="30" as="alternateBounds" />
          </mxGeometry>
        </mxCell>
        <mxCell id="ydyuHpFRoIkNP3I8t9Dv-245" value="" style="endArrow=none;html=1;rounded=0;startArrow=ERoneToMany;startFill=0;exitX=1;exitY=0.5;exitDx=0;exitDy=0;strokeWidth=2;" parent="1" source="ydyuHpFRoIkNP3I8t9Dv-45" edge="1">
          <mxGeometry width="50" height="50" relative="1" as="geometry">
            <mxPoint x="630" y="970" as="sourcePoint" />
            <mxPoint x="680" y="870" as="targetPoint" />
            <Array as="points">
              <mxPoint x="680" y="1065" />
            </Array>
          </mxGeometry>
        </mxCell>
        <mxCell id="ydyuHpFRoIkNP3I8t9Dv-246" value="" style="endArrow=none;html=1;rounded=0;startArrow=ERmandOne;startFill=0;exitX=-0.001;exitY=0.328;exitDx=0;exitDy=0;strokeWidth=2;exitPerimeter=0;" parent="1" source="ydyuHpFRoIkNP3I8t9Dv-49" edge="1">
          <mxGeometry width="50" height="50" relative="1" as="geometry">
            <mxPoint x="640" y="920" as="sourcePoint" />
            <mxPoint x="680" y="870" as="targetPoint" />
            <Array as="points">
              <mxPoint x="680" y="730" />
            </Array>
          </mxGeometry>
        </mxCell>
        <mxCell id="ydyuHpFRoIkNP3I8t9Dv-247" value="" style="endArrow=none;html=1;rounded=0;startArrow=ERmandOne;startFill=0;exitX=1;exitY=0.5;exitDx=0;exitDy=0;strokeWidth=2;" parent="1" source="ydyuHpFRoIkNP3I8t9Dv-65" edge="1">
          <mxGeometry width="50" height="50" relative="1" as="geometry">
            <mxPoint x="247" y="870" as="sourcePoint" />
            <mxPoint x="210" y="885" as="targetPoint" />
          </mxGeometry>
        </mxCell>
        <mxCell id="ydyuHpFRoIkNP3I8t9Dv-248" value="" style="endArrow=none;html=1;rounded=0;startArrow=ERoneToMany;startFill=0;exitX=0;exitY=0.5;exitDx=0;exitDy=0;strokeWidth=2;" parent="1" source="ydyuHpFRoIkNP3I8t9Dv-27" edge="1">
          <mxGeometry width="50" height="50" relative="1" as="geometry">
            <mxPoint x="20" y="1265" as="sourcePoint" />
            <mxPoint x="210" y="885" as="targetPoint" />
          </mxGeometry>
        </mxCell>
        <mxCell id="ydyuHpFRoIkNP3I8t9Dv-250" value="" style="endArrow=none;html=1;rounded=0;startArrow=ERzeroToOne;startFill=0;exitX=1;exitY=0.25;exitDx=0;exitDy=0;strokeWidth=2;" parent="1" source="ydyuHpFRoIkNP3I8t9Dv-92" edge="1">
          <mxGeometry width="50" height="50" relative="1" as="geometry">
            <mxPoint x="700" y="1205" as="sourcePoint" />
            <mxPoint x="740" y="1020" as="targetPoint" />
            <Array as="points">
              <mxPoint x="740" y="1255" />
            </Array>
          </mxGeometry>
        </mxCell>
        <mxCell id="ydyuHpFRoIkNP3I8t9Dv-251" value="" style="endArrow=none;html=1;rounded=0;startArrow=ERmandOne;startFill=0;strokeWidth=2;exitX=0;exitY=0.5;exitDx=0;exitDy=0;" parent="1" source="ydyuHpFRoIkNP3I8t9Dv-58" edge="1">
          <mxGeometry width="50" height="50" relative="1" as="geometry">
            <mxPoint x="850" y="900" as="sourcePoint" />
            <mxPoint x="740" y="1020" as="targetPoint" />
            <Array as="points">
              <mxPoint x="790" y="825" />
              <mxPoint x="790" y="930" />
              <mxPoint x="790" y="1020" />
            </Array>
          </mxGeometry>
        </mxCell>
        <mxCell id="ydyuHpFRoIkNP3I8t9Dv-253" value="" style="endArrow=none;html=1;rounded=0;startArrow=ERmandOne;startFill=0;exitX=1;exitY=0.364;exitDx=0;exitDy=0;strokeWidth=2;exitPerimeter=0;" parent="1" source="ydyuHpFRoIkNP3I8t9Dv-138" edge="1">
          <mxGeometry width="50" height="50" relative="1" as="geometry">
            <mxPoint x="1080" y="1150" as="sourcePoint" />
            <mxPoint x="1200" y="820" as="targetPoint" />
            <Array as="points">
              <mxPoint x="1200" y="1120" />
            </Array>
          </mxGeometry>
        </mxCell>
        <mxCell id="ydyuHpFRoIkNP3I8t9Dv-254" value="" style="endArrow=none;html=1;rounded=0;startArrow=ERzeroToMany;startFill=0;exitX=1;exitY=0.75;exitDx=0;exitDy=0;strokeWidth=2;" parent="1" source="ydyuHpFRoIkNP3I8t9Dv-48" edge="1">
          <mxGeometry width="50" height="50" relative="1" as="geometry">
            <mxPoint x="1090" y="1205" as="sourcePoint" />
            <mxPoint x="1200" y="825" as="targetPoint" />
          </mxGeometry>
        </mxCell>
        <mxCell id="ydyuHpFRoIkNP3I8t9Dv-256" value="" style="endArrow=none;html=1;rounded=0;startArrow=ERmandOne;startFill=0;exitX=0;exitY=0.5;exitDx=0;exitDy=0;strokeWidth=2;" parent="1" edge="1">
          <mxGeometry width="50" height="50" relative="1" as="geometry">
            <mxPoint x="1241" y="539.57" as="sourcePoint" />
            <mxPoint x="1150" y="740" as="targetPoint" />
            <Array as="points">
              <mxPoint x="1150" y="540" />
            </Array>
          </mxGeometry>
        </mxCell>
        <mxCell id="ydyuHpFRoIkNP3I8t9Dv-257" value="" style="endArrow=none;html=1;rounded=0;startArrow=ERmandOne;startFill=0;strokeWidth=2;exitX=1;exitY=0.673;exitDx=0;exitDy=0;exitPerimeter=0;" parent="1" source="ydyuHpFRoIkNP3I8t9Dv-49" edge="1">
          <mxGeometry width="50" height="50" relative="1" as="geometry">
            <mxPoint x="1100" y="740" as="sourcePoint" />
            <mxPoint x="1150.289203689759" y="740" as="targetPoint" />
          </mxGeometry>
        </mxCell>
        <mxCell id="ydyuHpFRoIkNP3I8t9Dv-258" value="" style="endArrow=none;html=1;rounded=0;startArrow=ERzeroToOne;startFill=0;exitX=1;exitY=0.5;exitDx=0;exitDy=0;strokeWidth=2;" parent="1" source="ydyuHpFRoIkNP3I8t9Dv-14" edge="1">
          <mxGeometry width="50" height="50" relative="1" as="geometry">
            <mxPoint x="820" y="390" as="sourcePoint" />
            <mxPoint x="800" y="540" as="targetPoint" />
            <Array as="points">
              <mxPoint x="800" y="535" />
            </Array>
          </mxGeometry>
        </mxCell>
        <mxCell id="ydyuHpFRoIkNP3I8t9Dv-259" value="" style="endArrow=none;html=1;rounded=0;startArrow=ERzeroToMany;startFill=0;strokeWidth=2;exitX=0;exitY=0.5;exitDx=0;exitDy=0;" parent="1" source="ydyuHpFRoIkNP3I8t9Dv-61" edge="1">
          <mxGeometry width="50" height="50" relative="1" as="geometry">
            <mxPoint x="800" y="800" as="sourcePoint" />
            <mxPoint x="800" y="540" as="targetPoint" />
            <Array as="points">
              <mxPoint x="800" y="795" />
            </Array>
          </mxGeometry>
        </mxCell>
        <mxCell id="ydyuHpFRoIkNP3I8t9Dv-262" value="" style="endArrow=none;html=1;rounded=0;startArrow=ERmandOne;startFill=0;strokeWidth=2;" parent="1" source="ydyuHpFRoIkNP3I8t9Dv-148" edge="1">
          <mxGeometry width="50" height="50" relative="1" as="geometry">
            <mxPoint x="1320" y="755" as="sourcePoint" />
            <mxPoint x="1380" y="765" as="targetPoint" />
          </mxGeometry>
        </mxCell>
        <mxCell id="ydyuHpFRoIkNP3I8t9Dv-263" value="" style="endArrow=none;html=1;rounded=0;startArrow=ERoneToMany;startFill=0;exitX=1;exitY=0.5;exitDx=0;exitDy=0;strokeWidth=2;" parent="1" source="ydyuHpFRoIkNP3I8t9Dv-52" edge="1">
          <mxGeometry width="50" height="50" relative="1" as="geometry">
            <mxPoint x="1351" y="710" as="sourcePoint" />
            <mxPoint x="1380" y="765" as="targetPoint" />
          </mxGeometry>
        </mxCell>
        <mxCell id="ydyuHpFRoIkNP3I8t9Dv-266" value="" style="endArrow=none;html=1;rounded=0;startArrow=ERmandOne;startFill=0;strokeWidth=2;" parent="1" edge="1">
          <mxGeometry width="50" height="50" relative="1" as="geometry">
            <mxPoint x="1400" y="730" as="sourcePoint" />
            <mxPoint x="1320" y="1120" as="targetPoint" />
            <Array as="points">
              <mxPoint x="1320" y="730" />
            </Array>
          </mxGeometry>
        </mxCell>
        <mxCell id="ydyuHpFRoIkNP3I8t9Dv-267" value="" style="endArrow=none;html=1;rounded=0;startArrow=ERoneToMany;startFill=0;exitX=0;exitY=0.5;exitDx=0;exitDy=0;strokeWidth=2;" parent="1" source="ydyuHpFRoIkNP3I8t9Dv-167" edge="1">
          <mxGeometry width="50" height="50" relative="1" as="geometry">
            <mxPoint x="1180" y="1110" as="sourcePoint" />
            <mxPoint x="1320" y="1120" as="targetPoint" />
            <Array as="points">
              <mxPoint x="1320" y="1155" />
            </Array>
          </mxGeometry>
        </mxCell>
        <mxCell id="ydyuHpFRoIkNP3I8t9Dv-268" value="" style="endArrow=none;html=1;rounded=0;startArrow=ERzeroToMany;startFill=0;strokeWidth=2;exitX=1;exitY=0.5;exitDx=0;exitDy=0;" parent="1" source="ydyuHpFRoIkNP3I8t9Dv-154" edge="1">
          <mxGeometry width="50" height="50" relative="1" as="geometry">
            <mxPoint x="1900" y="1000" as="sourcePoint" />
            <mxPoint x="1800" y="720" as="targetPoint" />
            <Array as="points">
              <mxPoint x="1800" y="835" />
            </Array>
          </mxGeometry>
        </mxCell>
        <mxCell id="ydyuHpFRoIkNP3I8t9Dv-269" value="" style="endArrow=none;html=1;rounded=0;startArrow=ERmandOne;startFill=0;strokeWidth=2;exitX=-0.001;exitY=0.089;exitDx=0;exitDy=0;exitPerimeter=0;" parent="1" source="ydyuHpFRoIkNP3I8t9Dv-192" edge="1">
          <mxGeometry width="50" height="50" relative="1" as="geometry">
            <mxPoint x="1780" y="955" as="sourcePoint" />
            <mxPoint x="1800" y="720" as="targetPoint" />
          </mxGeometry>
        </mxCell>
        <mxCell id="ydyuHpFRoIkNP3I8t9Dv-271" value="" style="endArrow=none;html=1;rounded=0;startArrow=ERzeroToMany;startFill=0;strokeWidth=2;exitX=1;exitY=0.5;exitDx=0;exitDy=0;" parent="1" edge="1">
          <mxGeometry width="50" height="50" relative="1" as="geometry">
            <mxPoint x="1680" y="865" as="sourcePoint" />
            <mxPoint x="1800" y="1020" as="targetPoint" />
            <Array as="points">
              <mxPoint x="1800" y="865" />
            </Array>
          </mxGeometry>
        </mxCell>
        <mxCell id="ydyuHpFRoIkNP3I8t9Dv-272" value="" style="endArrow=none;html=1;rounded=0;startArrow=ERmandOne;startFill=0;strokeWidth=2;exitX=-0.001;exitY=0.06;exitDx=0;exitDy=0;exitPerimeter=0;" parent="1" source="ydyuHpFRoIkNP3I8t9Dv-202" edge="1">
          <mxGeometry width="50" height="50" relative="1" as="geometry">
            <mxPoint x="1910" y="1020" as="sourcePoint" />
            <mxPoint x="1800" y="1020" as="targetPoint" />
          </mxGeometry>
        </mxCell>
        <mxCell id="ydyuHpFRoIkNP3I8t9Dv-273" value="" style="endArrow=none;html=1;rounded=0;startArrow=ERzeroToMany;startFill=0;strokeWidth=2;exitX=1.003;exitY=0.69;exitDx=0;exitDy=0;exitPerimeter=0;" parent="1" source="ydyuHpFRoIkNP3I8t9Dv-229" edge="1">
          <mxGeometry width="50" height="50" relative="1" as="geometry">
            <mxPoint x="2190" y="455" as="sourcePoint" />
            <mxPoint x="2320" y="720" as="targetPoint" />
            <Array as="points">
              <mxPoint x="2320" y="370" />
            </Array>
          </mxGeometry>
        </mxCell>
        <mxCell id="ydyuHpFRoIkNP3I8t9Dv-274" value="" style="endArrow=none;html=1;rounded=0;startArrow=ERmandOne;startFill=0;strokeWidth=2;exitX=1.001;exitY=0.09;exitDx=0;exitDy=0;exitPerimeter=0;" parent="1" source="ydyuHpFRoIkNP3I8t9Dv-192" edge="1">
          <mxGeometry width="50" height="50" relative="1" as="geometry">
            <mxPoint x="2275" y="721" as="sourcePoint" />
            <mxPoint x="2320" y="720" as="targetPoint" />
          </mxGeometry>
        </mxCell>
        <mxCell id="ydyuHpFRoIkNP3I8t9Dv-275" value="" style="endArrow=none;html=1;rounded=0;startArrow=ERoneToMany;startFill=0;exitX=1;exitY=0.5;exitDx=0;exitDy=0;strokeWidth=2;" parent="1" source="ydyuHpFRoIkNP3I8t9Dv-196" edge="1">
          <mxGeometry width="50" height="50" relative="1" as="geometry">
            <mxPoint x="2280" y="775" as="sourcePoint" />
            <mxPoint x="2180" y="840" as="targetPoint" />
            <Array as="points">
              <mxPoint x="2180" y="785" />
            </Array>
          </mxGeometry>
        </mxCell>
        <mxCell id="ydyuHpFRoIkNP3I8t9Dv-276" value="" style="endArrow=none;html=1;rounded=0;startArrow=ERzeroToOne;startFill=0;exitX=0;exitY=0.5;exitDx=0;exitDy=0;strokeWidth=2;" parent="1" source="ydyuHpFRoIkNP3I8t9Dv-216" edge="1">
          <mxGeometry width="50" height="50" relative="1" as="geometry">
            <mxPoint x="2210" y="910" as="sourcePoint" />
            <mxPoint x="2180" y="840" as="targetPoint" />
            <Array as="points">
              <mxPoint x="2180" y="900" />
            </Array>
          </mxGeometry>
        </mxCell>
        <mxCell id="ydyuHpFRoIkNP3I8t9Dv-278" value="" style="endArrow=none;html=1;rounded=0;startArrow=ERmandOne;startFill=0;exitX=0;exitY=0.5;exitDx=0;exitDy=0;strokeWidth=2;" parent="1" edge="1">
          <mxGeometry width="50" height="50" relative="1" as="geometry">
            <mxPoint x="1800" y="580" as="sourcePoint" />
            <mxPoint x="1710" y="680" as="targetPoint" />
            <Array as="points">
              <mxPoint x="1710" y="580" />
            </Array>
          </mxGeometry>
        </mxCell>
        <mxCell id="ydyuHpFRoIkNP3I8t9Dv-279" value="" style="endArrow=none;html=1;rounded=0;startArrow=ERoneToMany;startFill=0;exitX=1;exitY=0.5;exitDx=0;exitDy=0;strokeWidth=2;" parent="1" source="ydyuHpFRoIkNP3I8t9Dv-151" edge="1">
          <mxGeometry width="50" height="50" relative="1" as="geometry">
            <mxPoint x="2150" y="795" as="sourcePoint" />
            <mxPoint x="1710" y="680" as="targetPoint" />
            <Array as="points">
              <mxPoint x="1710" y="800" />
            </Array>
          </mxGeometry>
        </mxCell>
        <mxCell id="ydyuHpFRoIkNP3I8t9Dv-281" value="" style="endArrow=none;html=1;rounded=0;startArrow=ERmandOne;startFill=0;exitX=1;exitY=0.364;exitDx=0;exitDy=0;strokeWidth=2;exitPerimeter=0;" parent="1" edge="1">
          <mxGeometry width="50" height="50" relative="1" as="geometry">
            <mxPoint x="735" y="1470" as="sourcePoint" />
            <mxPoint x="810" y="1230" as="targetPoint" />
            <Array as="points">
              <mxPoint x="810" y="1470" />
            </Array>
          </mxGeometry>
        </mxCell>
        <mxCell id="ydyuHpFRoIkNP3I8t9Dv-282" value="" style="endArrow=none;html=1;rounded=0;startArrow=ERmandOne;startFill=0;exitX=0.003;exitY=0.133;exitDx=0;exitDy=0;strokeWidth=2;exitPerimeter=0;" parent="1" source="ydyuHpFRoIkNP3I8t9Dv-137" edge="1">
          <mxGeometry width="50" height="50" relative="1" as="geometry">
            <mxPoint x="745" y="1480" as="sourcePoint" />
            <mxPoint x="810" y="1230" as="targetPoint" />
            <Array as="points">
              <mxPoint x="810" y="1096" />
            </Array>
          </mxGeometry>
        </mxCell>
        <mxCell id="ydyuHpFRoIkNP3I8t9Dv-283" value="" style="endArrow=none;html=1;rounded=0;startArrow=ERmandOne;startFill=0;exitX=0.994;exitY=-0.151;exitDx=0;exitDy=0;strokeWidth=2;exitPerimeter=0;" parent="1" source="ydyuHpFRoIkNP3I8t9Dv-112" edge="1">
          <mxGeometry width="50" height="50" relative="1" as="geometry">
            <mxPoint x="801" y="1520" as="sourcePoint" />
            <mxPoint x="770" y="1620" as="targetPoint" />
            <Array as="points">
              <mxPoint x="770" y="1505" />
            </Array>
          </mxGeometry>
        </mxCell>
        <mxCell id="ydyuHpFRoIkNP3I8t9Dv-284" value="" style="endArrow=none;html=1;rounded=0;startArrow=ERmandOne;startFill=0;strokeWidth=2;exitX=0.001;exitY=0.65;exitDx=0;exitDy=0;exitPerimeter=0;" parent="1" source="ydyuHpFRoIkNP3I8t9Dv-128" edge="1">
          <mxGeometry width="50" height="50" relative="1" as="geometry">
            <mxPoint x="860" y="1715" as="sourcePoint" />
            <mxPoint x="770" y="1620" as="targetPoint" />
            <Array as="points">
              <mxPoint x="790" y="1620" />
            </Array>
          </mxGeometry>
        </mxCell>
      </root>
    </mxGraphModel>
  </diagram>
</mxfile>
